<svg version="1.1" viewBox="0.0 0.0 601.0 552.0" fill="none" stroke="none" stroke-linecap="square" stroke-miterlimit="10" width="601" height="552" xmlns:xlink="http://www.w3.org/1999/xlink" xmlns="http://www.w3.org/2000/svg"><path fill="#ffffff" fill-opacity="0.0" d="M0 0L601.0 0L601.0 552.0L0 552.0L0 0Z" fill-rule="nonzero"/><path fill="#542c03" d="M300.5 155.29527C312.86884 155.29527 325.14987 156.7493 336.8307 159.5967L336.8307 192.73842C325.14987 189.89104 312.86884 188.43701 300.5 188.43701Z" fill-rule="nonzero"/><path fill="#783f04" d="M300.5 77.96457C325.23767 77.96457 349.7997 80.87262 373.1614 86.5674L336.8307 159.5967C325.14987 156.7493 312.86884 155.29527 300.5 155.29527Z" fill-rule="nonzero"/><path fill="#8f2e1a" d="M336.8307 159.5967C349.97986 162.802 362.14487 167.71843 372.68497 174.08702L372.68497 207.22876C362.14487 200.86017 349.97986 195.94374 336.8307 192.73842Z" fill-rule="nonzero"/><path fill="#cc4125" d="M373.1614 86.5674C399.4597 92.97802 423.7897 102.810875 444.86993 115.54806L372.68497 174.08702C362.14487 167.71843 349.97986 162.802 336.8307 159.5967Z" fill-rule="nonzero"/><path fill="#9d4747" d="M372.68497 174.08702C384.4044 181.16817 393.86676 189.89452 400.45847 199.70016L400.45847 232.8419C393.86676 223.03625 384.4044 214.3099 372.68497 207.22876Z" fill-rule="nonzero"/><path fill="#e06666" d="M444.86993 115.54806C468.30878 129.71036 487.23352 147.16306 500.4169 166.77435L400.45847 199.70016C393.86676 189.89452 384.4044 181.16817 372.68497 174.08702Z" fill-rule="nonzero"/><path fill="#a98823" d="M400.45847 199.70016C402.42938 202.63206 404.1351 205.64778 405.56552 208.72948L405.56552 241.87122C404.1351 238.78952 402.42938 235.7738 400.45847 232.8419Z" fill-rule="nonzero"/><path fill="#f1c232" d="M500.4169 166.77435C504.35876 172.63815 507.7702 178.66959 510.63107 184.83298L405.56552 208.72948C404.1351 205.64778 402.42938 202.63206 400.45847 199.70016Z" fill-rule="nonzero"/><path fill="#083a68" d="M521.4449 265.76773C521.4449 265.76773 521.4449 265.76773 521.4449 265.76773L521.4449 232.62599C521.4449 232.62599 521.4449 232.62599 521.4449 232.62599Z" fill-rule="nonzero"/><path fill="#083a68" d="M405.56552 208.72948C409.14783 216.44707 410.97244 224.51125 410.97244 232.62599L410.97244 265.76773C410.97244 257.65298 409.14783 249.58879 405.56552 241.87122Z" fill-rule="nonzero"/><path fill="#0b5394" d="M510.63107 184.83298C517.79565 200.26814 521.4449 216.3965 521.4449 232.62599L410.97244 232.62599C410.97244 224.51125 409.14783 216.44707 405.56552 208.72948Z" fill-rule="nonzero"/><path fill="#b39436" d="M255.5668 161.98087C269.70987 157.57304 285.0185 155.29527 300.5 155.29527L300.5 188.43701C285.0185 188.43701 269.70987 190.71477 255.5668 195.1226Z" fill-rule="nonzero"/><path fill="#ffd34d" d="M210.63362 91.33575C238.91972 82.5201 269.53702 77.96457 300.5 77.96457L300.5 155.29527C285.0185 155.29527 269.70987 157.57304 255.5668 161.98087Z" fill-rule="nonzero"/><path fill="#511332" d="M190.63274 224.54272C194.75827 197.06647 219.511 173.21802 255.5668 161.98087L255.5668 195.1226C219.511 206.35976 194.75827 230.2082 190.63274 257.68445Z" fill-rule="nonzero"/><path fill="#741b47" d="M80.76548 216.45946C89.01653 161.50696 138.52199 113.81007 210.63362 91.33575L255.5668 161.98087C219.511 173.21802 194.75827 197.06647 190.63274 224.54272Z" fill-rule="nonzero"/><path fill="#483775" d="M79.991104 275.47897C79.700516 272.24588 79.555115 269.0072 79.555115 265.76773L79.555115 232.62599C79.555115 235.86548 79.700516 239.10416 79.991104 242.33725Z" fill-rule="nonzero"/><path fill="#483775" d="M190.02756 232.62599C190.02756 229.92601 190.22957 227.2279 190.63274 224.54272L190.63274 257.68445C190.22957 260.36963 190.02756 263.06775 190.02756 265.76773Z" fill-rule="nonzero"/><path fill="#674ea7" d="M79.991104 242.33725C79.21582 233.71133 79.47485 225.0551 80.76548 216.45946L190.63274 224.54272C189.98743 228.84055 189.85791 233.16866 190.24554 237.48161Z" fill-rule="nonzero"/><path fill="#2b5d8b" d="M159.66443 384.9364C112.657486 357.71512 83.821785 318.09982 79.991104 275.47897L79.991104 242.33725C83.821785 284.9581 112.657486 324.5734 159.66443 351.79465Z" fill-rule="nonzero"/><path fill="#3d85c6" d="M159.66443 351.79465C112.657486 324.5734 83.821785 284.9581 79.991104 242.33725L190.24554 237.48161C192.16089 258.79205 206.57875 278.59967 230.08221 292.21033Z" fill-rule="nonzero"/><path fill="#275314" d="M521.4449 265.76773C521.4449 325.67877 472.01538 380.20065 394.57376 405.70956C317.1321 431.21844 225.61052 423.12512 159.66443 384.9364L159.66443 351.79465C225.61052 389.9834 317.1321 398.07672 394.57376 372.5678C472.01538 347.05893 521.4449 292.53705 521.4449 232.62599Z" fill-rule="nonzero"/><path fill="#38761d" d="M521.4449 232.62599C521.4449 292.53705 472.01538 347.05893 394.57376 372.5678C317.1321 398.07672 225.61052 389.9834 159.66443 351.79465L230.08221 292.21033C263.05527 311.3047 308.81607 315.35135 347.53687 302.5969C386.2577 289.84247 410.97244 262.5815 410.97244 232.62599Z" fill-rule="nonzero"/><path fill="#ffffff" d="M314.77188 115.09868L315.35 110.03618L320.92813 110.03618L320.92813 111.6768L316.975 111.6768L316.725 113.81743Q317.42813 113.44243 318.225 113.44243Q319.64688 113.44243 320.44376 114.33305Q321.25626 115.20805 321.25626 116.8018Q321.25626 117.75493 320.85 118.52055Q320.44376 119.28618 319.67813 119.70805Q318.92813 120.12993 317.89688 120.12993Q316.99063 120.12993 316.20938 119.77055Q315.44376 119.39555 314.99063 118.7393Q314.55313 118.06743 314.52188 117.22368L316.475 117.22368Q316.5375 117.84868 316.9125 118.19243Q317.2875 118.53618 317.88126 118.53618Q318.55313 118.53618 318.9125 118.0518Q319.27188 117.56743 319.27188 116.69243Q319.27188 115.83305 318.85 115.39555Q318.44376 114.94243 317.67813 114.94243Q316.975 114.94243 316.5375 115.3018L316.35 115.4893L314.77188 115.09868ZM322.6625 119.02055Q322.6625 118.5518 322.975 118.25493Q323.30313 117.95805 323.77188 117.95805Q324.27188 117.95805 324.58438 118.25493Q324.89688 118.5518 324.89688 119.02055Q324.89688 119.4893 324.58438 119.78618Q324.27188 120.06743 323.77188 120.06743Q323.2875 120.06743 322.975 119.78618Q322.6625 119.4893 322.6625 119.02055ZM328.49063 114.12993L329.5375 114.12993Q330.2875 114.12993 330.64688 113.75493Q331.02188 113.37993 331.02188 112.77055Q331.02188 112.16118 330.6625 111.83305Q330.30313 111.4893 329.67813 111.4893Q329.1 111.4893 328.70938 111.8018Q328.33438 112.1143 328.33438 112.6143L326.36563 112.6143Q326.36563 111.83305 326.7875 111.22368Q327.20938 110.59868 327.95938 110.25493Q328.70938 109.89555 329.63126 109.89555Q331.20938 109.89555 332.1 110.66118Q332.99063 111.41118 332.99063 112.7393Q332.99063 113.4268 332.56876 114.00493Q332.1625 114.56743 331.49063 114.87993Q332.31876 115.1768 332.725 115.78618Q333.14688 116.37993 333.14688 117.19243Q333.14688 118.52055 332.17813 119.33305Q331.225 120.12993 329.63126 120.12993Q328.13126 120.12993 327.17813 119.34868Q326.24063 118.5518 326.24063 117.25493L328.20938 117.25493Q328.20938 117.81743 328.63126 118.1768Q329.05313 118.53618 329.67813 118.53618Q330.38126 118.53618 330.77188 118.16118Q331.17813 117.78618 331.17813 117.1768Q331.17813 115.6768 329.5375 115.6768L328.49063 115.6768L328.49063 114.12993ZM334.45938 111.94243Q334.45938 111.03618 335.05313 110.47368Q335.64688 109.89555 336.6 109.89555Q337.58438 109.89555 338.17813 110.45805Q338.77188 111.02055 338.77188 111.9893L338.77188 112.47368Q338.77188 113.39555 338.17813 113.95805Q337.58438 114.52055 336.61563 114.52055Q335.64688 114.52055 335.05313 113.95805Q334.45938 113.39555 334.45938 112.44243L334.45938 111.94243ZM335.77188 112.47368Q335.77188 112.87993 336.00626 113.12993Q336.24063 113.37993 336.61563 113.37993Q337.00626 113.37993 337.225 113.12993Q337.45938 112.87993 337.45938 112.45805L337.45938 111.94243Q337.45938 111.53618 337.225 111.28618Q337.00626 111.03618 336.6 111.03618Q336.225 111.03618 335.99063 111.28618Q335.77188 111.53618 335.77188 111.97368L335.77188 112.47368ZM339.20938 117.5518Q339.20938 116.62993 339.80313 116.06743Q340.4125 115.50493 341.36563 115.50493Q342.33438 115.50493 342.92813 116.06743Q343.5375 116.6143 343.5375 117.58305L343.5375 118.08305Q343.5375 119.00493 342.94376 119.56743Q342.36563 120.12993 341.38126 120.12993Q340.39688 120.12993 339.80313 119.56743Q339.20938 118.9893 339.20938 118.0518L339.20938 117.5518ZM340.52188 118.08305Q340.52188 118.45805 340.77188 118.72368Q341.02188 118.9893 341.38126 118.9893Q342.225 118.9893 342.225 118.06743L342.225 117.5518Q342.225 117.14555 341.99063 116.89555Q341.75626 116.64555 341.36563 116.64555Q340.99063 116.64555 340.75626 116.89555Q340.52188 117.14555 340.52188 117.56743L340.52188 118.08305ZM337.00626 119.2393L336.05313 118.72368L340.9125 110.94243L341.86563 111.45805L337.00626 119.2393Z" fill-rule="nonzero"/><path fill="#ffffff" d="M374.3856 126.60794L374.3856 128.24857L374.1981 128.24857Q372.85434 128.26419 372.04184 128.93607Q371.22934 129.60794 371.05746 130.81107Q371.85434 130.01419 373.05746 130.01419Q374.36996 130.01419 375.1356 130.95169Q375.9012 131.87357 375.9012 133.38919Q375.9012 134.35794 375.47934 135.15482Q375.05746 135.93607 374.2762 136.37357Q373.5106 136.81107 372.54184 136.81107Q370.97934 136.81107 370.0106 135.71732Q369.04184 134.62357 369.04184 132.79544L369.04184 132.07669Q369.04184 130.46732 369.6512 129.23294Q370.2606 127.98294 371.4012 127.311066Q372.55746 126.623566 374.05746 126.60794L374.3856 126.60794ZM372.4637 131.59232Q371.97934 131.59232 371.5887 131.84232Q371.1981 132.09232 371.0262 132.51419L371.0262 133.10794Q371.0262 134.09232 371.41684 134.65482Q371.80746 135.21732 372.5106 135.21732Q373.1356 135.21732 373.5262 134.71732Q373.93246 134.20169 373.93246 133.40482Q373.93246 132.59232 373.5262 132.09232Q373.1356 131.59232 372.4637 131.59232ZM377.2137 135.70169Q377.2137 135.23294 377.5262 134.93607Q377.85434 134.63919 378.3231 134.63919Q378.8231 134.63919 379.1356 134.93607Q379.4481 135.23294 379.4481 135.70169Q379.4481 136.17044 379.1356 136.46732Q378.8231 136.74857 378.3231 136.74857Q377.8387 136.74857 377.5262 136.46732Q377.2137 136.17044 377.2137 135.70169ZM387.72934 132.56107Q387.72934 134.62357 386.86996 135.71732Q386.0262 136.81107 384.36996 136.81107Q382.74496 136.81107 381.8856 135.73294Q381.0262 134.65482 381.0106 132.65482L381.0106 130.82669Q381.0106 128.73294 381.86996 127.654816Q382.72934 126.57669 384.35434 126.57669Q385.99496 126.57669 386.85434 127.654816Q387.7137 128.71732 387.72934 130.71732L387.72934 132.56107ZM385.7606 130.54544Q385.7606 129.31107 385.41684 128.74857Q385.0731 128.18607 384.35434 128.18607Q383.66684 128.18607 383.3231 128.71732Q382.99496 129.24857 382.97934 130.38919L382.97934 132.81107Q382.97934 134.02982 383.30746 134.62357Q383.6356 135.21732 384.36996 135.21732Q385.10434 135.21732 385.41684 134.65482Q385.74496 134.07669 385.7606 132.90482L385.7606 130.54544ZM389.0106 128.62357Q389.0106 127.717316 389.60434 127.154816Q390.1981 126.57669 391.1512 126.57669Q392.1356 126.57669 392.72934 127.13919Q393.3231 127.70169 393.3231 128.67044L393.3231 129.15482Q393.3231 130.07669 392.72934 130.63919Q392.1356 131.20169 391.16684 131.20169Q390.1981 131.20169 389.60434 130.63919Q389.0106 130.07669 389.0106 129.12357L389.0106 128.62357ZM390.3231 129.15482Q390.3231 129.56107 390.55746 129.81107Q390.79184 130.06107 391.16684 130.06107Q391.55746 130.06107 391.7762 129.81107Q392.0106 129.56107 392.0106 129.13919L392.0106 128.62357Q392.0106 128.21732 391.7762 127.967316Q391.55746 127.717316 391.1512 127.717316Q390.7762 127.717316 390.54184 127.967316Q390.3231 128.21732 390.3231 128.65482L390.3231 129.15482ZM393.7606 134.23294Q393.7606 133.31107 394.35434 132.74857Q394.9637 132.18607 395.91684 132.18607Q396.8856 132.18607 397.47934 132.74857Q398.0887 133.29544 398.0887 134.26419L398.0887 134.76419Q398.0887 135.68607 397.49496 136.24857Q396.91684 136.81107 395.93246 136.81107Q394.9481 136.81107 394.35434 136.24857Q393.7606 135.67044 393.7606 134.73294L393.7606 134.23294ZM395.0731 134.76419Q395.0731 135.13919 395.3231 135.40482Q395.5731 135.67044 395.93246 135.67044Q396.7762 135.67044 396.7762 134.74857L396.7762 134.23294Q396.7762 133.82669 396.54184 133.57669Q396.30746 133.32669 395.91684 133.32669Q395.54184 133.32669 395.30746 133.57669Q395.0731 133.82669 395.0731 134.24857L395.0731 134.76419ZM391.55746 135.92044L390.60434 135.40482L395.4637 127.623566L396.41684 128.13919L391.55746 135.92044Z" fill-rule="nonzero"/><path fill="#ffffff" d="M423.52316 156.93237L423.52316 158.573L423.33566 158.573Q421.9919 158.58862 421.1794 159.2605Q420.3669 159.93237 420.19504 161.1355Q420.9919 160.33862 422.19504 160.33862Q423.50754 160.33862 424.27316 161.27612Q425.0388 162.198 425.0388 163.71362Q425.0388 164.68237 424.6169 165.47925Q424.19504 166.2605 423.4138 166.698Q422.64816 167.1355 421.6794 167.1355Q420.1169 167.1355 419.14816 166.04175Q418.1794 164.948 418.1794 163.11987L418.1794 162.40112Q418.1794 160.79175 418.7888 159.55737Q419.39816 158.30737 420.5388 157.6355Q421.69504 156.948 423.19504 156.93237L423.52316 156.93237ZM421.6013 161.91675Q421.1169 161.91675 420.7263 162.16675Q420.33566 162.41675 420.1638 162.83862L420.1638 163.43237Q420.1638 164.41675 420.5544 164.97925Q420.94504 165.54175 421.64816 165.54175Q422.27316 165.54175 422.6638 165.04175Q423.07004 164.52612 423.07004 163.72925Q423.07004 162.91675 422.6638 162.41675Q422.27316 161.91675 421.6013 161.91675ZM426.3513 166.02612Q426.3513 165.55737 426.6638 165.2605Q426.9919 164.96362 427.46066 164.96362Q427.96066 164.96362 428.27316 165.2605Q428.58566 165.55737 428.58566 166.02612Q428.58566 166.49487 428.27316 166.79175Q427.96066 167.073 427.46066 167.073Q426.9763 167.073 426.6638 166.79175Q426.3513 166.49487 426.3513 166.02612ZM436.9294 158.15112L433.08566 166.99487L431.00754 166.99487L434.8513 158.6355L429.9138 158.6355L429.9138 157.04175L436.9294 157.04175L436.9294 158.15112ZM438.14816 158.948Q438.14816 158.04175 438.7419 157.47925Q439.33566 156.90112 440.2888 156.90112Q441.27316 156.90112 441.8669 157.46362Q442.46066 158.02612 442.46066 158.99487L442.46066 159.47925Q442.46066 160.40112 441.8669 160.96362Q441.27316 161.52612 440.3044 161.52612Q439.33566 161.52612 438.7419 160.96362Q438.14816 160.40112 438.14816 159.448L438.14816 158.948ZM439.46066 159.47925Q439.46066 159.8855 439.69504 160.1355Q439.9294 160.3855 440.3044 160.3855Q440.69504 160.3855 440.9138 160.1355Q441.14816 159.8855 441.14816 159.46362L441.14816 158.948Q441.14816 158.54175 440.9138 158.29175Q440.69504 158.04175 440.2888 158.04175Q439.9138 158.04175 439.6794 158.29175Q439.46066 158.54175 439.46066 158.97925L439.46066 159.47925ZM442.89816 164.55737Q442.89816 163.6355 443.4919 163.073Q444.1013 162.5105 445.0544 162.5105Q446.02316 162.5105 446.6169 163.073Q447.2263 163.61987 447.2263 164.58862L447.2263 165.08862Q447.2263 166.0105 446.63254 166.573Q446.0544 167.1355 445.07004 167.1355Q444.08566 167.1355 443.4919 166.573Q442.89816 165.99487 442.89816 165.05737L442.89816 164.55737ZM444.21066 165.08862Q444.21066 165.46362 444.46066 165.72925Q444.71066 165.99487 445.07004 165.99487Q445.9138 165.99487 445.9138 165.073L445.9138 164.55737Q445.9138 164.15112 445.6794 163.90112Q445.44504 163.65112 445.0544 163.65112Q444.6794 163.65112 444.44504 163.90112Q444.21066 164.15112 444.21066 164.573L444.21066 165.08862ZM440.69504 166.24487L439.7419 165.72925L444.6013 157.948L445.5544 158.46362L440.69504 166.24487Z" fill-rule="nonzero"/><path fill="#ffffff" d="M458.6104 213.15016L459.18854 208.08766L464.76666 208.08766L464.76666 209.72829L460.81354 209.72829L460.56354 211.86891Q461.26666 211.49391 462.06354 211.49391Q463.4854 211.49391 464.2823 212.38454Q465.0948 213.25954 465.0948 214.85329Q465.0948 215.80641 464.68854 216.57204Q464.2823 217.33766 463.51666 217.75954Q462.76666 218.18141 461.7354 218.18141Q460.82916 218.18141 460.0479 217.82204Q459.2823 217.44704 458.82916 216.79079Q458.39166 216.11891 458.3604 215.27516L460.31354 215.27516Q460.37604 215.90016 460.75104 216.24391Q461.12604 216.58766 461.7198 216.58766Q462.39166 216.58766 462.75104 216.10329Q463.1104 215.61891 463.1104 214.74391Q463.1104 213.88454 462.68854 213.44704Q462.2823 212.99391 461.51666 212.99391Q460.81354 212.99391 460.37604 213.35329L460.18854 213.54079L458.6104 213.15016ZM466.50104 217.07204Q466.50104 216.60329 466.81354 216.30641Q467.14166 216.00954 467.6104 216.00954Q468.1104 216.00954 468.4229 216.30641Q468.7354 216.60329 468.7354 217.07204Q468.7354 217.54079 468.4229 217.83766Q468.1104 218.11891 467.6104 218.11891Q467.12604 218.11891 466.81354 217.83766Q466.50104 217.54079 466.50104 217.07204ZM477.01666 213.93141Q477.01666 215.99391 476.1573 217.08766Q475.31354 218.18141 473.6573 218.18141Q472.0323 218.18141 471.1729 217.10329Q470.31354 216.02516 470.2979 214.02516L470.2979 212.19704Q470.2979 210.10329 471.1573 209.02516Q472.01666 207.94704 473.64166 207.94704Q475.2823 207.94704 476.14166 209.02516Q477.00104 210.08766 477.01666 212.08766L477.01666 213.93141ZM475.0479 211.91579Q475.0479 210.68141 474.70416 210.11891Q474.3604 209.55641 473.64166 209.55641Q472.95416 209.55641 472.6104 210.08766Q472.2823 210.61891 472.26666 211.75954L472.26666 214.18141Q472.26666 215.40016 472.5948 215.99391Q472.9229 216.58766 473.6573 216.58766Q474.39166 216.58766 474.70416 216.02516Q475.0323 215.44704 475.0479 214.27516L475.0479 211.91579ZM478.2979 209.99391Q478.2979 209.08766 478.89166 208.52516Q479.4854 207.94704 480.43854 207.94704Q481.4229 207.94704 482.01666 208.50954Q482.6104 209.07204 482.6104 210.04079L482.6104 210.52516Q482.6104 211.44704 482.01666 212.00954Q481.4229 212.57204 480.45416 212.57204Q479.4854 212.57204 478.89166 212.00954Q478.2979 211.44704 478.2979 210.49391L478.2979 209.99391ZM479.6104 210.52516Q479.6104 210.93141 479.8448 211.18141Q480.07916 211.43141 480.45416 211.43141Q480.8448 211.43141 481.06354 211.18141Q481.2979 210.93141 481.2979 210.50954L481.2979 209.99391Q481.2979 209.58766 481.06354 209.33766Q480.8448 209.08766 480.43854 209.08766Q480.06354 209.08766 479.82916 209.33766Q479.6104 209.58766 479.6104 210.02516L479.6104 210.52516ZM483.0479 215.60329Q483.0479 214.68141 483.64166 214.11891Q484.25104 213.55641 485.20416 213.55641Q486.1729 213.55641 486.76666 214.11891Q487.37604 214.66579 487.37604 215.63454L487.37604 216.13454Q487.37604 217.05641 486.7823 217.61891Q486.20416 218.18141 485.2198 218.18141Q484.2354 218.18141 483.64166 217.61891Q483.0479 217.04079 483.0479 216.10329L483.0479 215.60329ZM484.3604 216.13454Q484.3604 216.50954 484.6104 216.77516Q484.8604 217.04079 485.2198 217.04079Q486.06354 217.04079 486.06354 216.11891L486.06354 215.60329Q486.06354 215.19704 485.82916 214.94704Q485.5948 214.69704 485.20416 214.69704Q484.82916 214.69704 484.5948 214.94704Q484.3604 215.19704 484.3604 215.61891L484.3604 216.13454ZM480.8448 217.29079L479.89166 216.77516L484.75104 208.99391L485.70416 209.50954L480.8448 217.29079Z" fill-rule="nonzero"/><path fill="#ffffff" d="M354.74283 336.223L355.7897 336.223Q356.5397 336.223 356.89908 335.848Q357.27408 335.473 357.27408 334.86362Q357.27408 334.25424 356.9147 333.92612Q356.55533 333.58237 355.93033 333.58237Q355.3522 333.58237 354.96158 333.89487Q354.58658 334.20737 354.58658 334.70737L352.61783 334.70737Q352.61783 333.92612 353.0397 333.31674Q353.46158 332.69174 354.21158 332.348Q354.96158 331.98862 355.88345 331.98862Q357.46158 331.98862 358.3522 332.75424Q359.24283 333.50424 359.24283 334.83237Q359.24283 335.51987 358.82095 336.098Q358.4147 336.6605 357.74283 336.973Q358.57095 337.26987 358.9772 337.87924Q359.39908 338.473 359.39908 339.2855Q359.39908 340.61362 358.43033 341.42612Q357.4772 342.223 355.88345 342.223Q354.38345 342.223 353.43033 341.44174Q352.49283 340.64487 352.49283 339.348L354.46158 339.348Q354.46158 339.9105 354.88345 340.26987Q355.30533 340.62924 355.93033 340.62924Q356.63345 340.62924 357.02408 340.25424Q357.43033 339.87924 357.43033 339.26987Q357.43033 337.76987 355.7897 337.76987L354.74283 337.76987L354.74283 336.223ZM366.08658 332.01987L366.08658 333.6605L365.89908 333.6605Q364.55533 333.67612 363.74283 334.348Q362.93033 335.01987 362.75845 336.223Q363.55533 335.42612 364.75845 335.42612Q366.07095 335.42612 366.83658 336.36362Q367.6022 337.2855 367.6022 338.80112Q367.6022 339.76987 367.18033 340.56674Q366.75845 341.348 365.9772 341.7855Q365.21158 342.223 364.24283 342.223Q362.68033 342.223 361.71158 341.12924Q360.74283 340.0355 360.74283 338.20737L360.74283 337.48862Q360.74283 335.87924 361.3522 334.64487Q361.96158 333.39487 363.1022 332.723Q364.25845 332.0355 365.75845 332.01987L366.08658 332.01987ZM364.1647 337.00424Q363.68033 337.00424 363.2897 337.25424Q362.89908 337.50424 362.7272 337.92612L362.7272 338.51987Q362.7272 339.50424 363.11783 340.06674Q363.50845 340.62924 364.21158 340.62924Q364.83658 340.62924 365.2272 340.12924Q365.63345 339.61362 365.63345 338.81674Q365.63345 338.00424 365.2272 337.50424Q364.83658 337.00424 364.1647 337.00424ZM368.9147 341.11362Q368.9147 340.64487 369.2272 340.348Q369.55533 340.05112 370.02408 340.05112Q370.52408 340.05112 370.83658 340.348Q371.14908 340.64487 371.14908 341.11362Q371.14908 341.58237 370.83658 341.87924Q370.52408 342.1605 370.02408 342.1605Q369.5397 342.1605 369.2272 341.87924Q368.9147 341.58237 368.9147 341.11362ZM379.43033 337.973Q379.43033 340.0355 378.57095 341.12924Q377.7272 342.223 376.07095 342.223Q374.44595 342.223 373.58658 341.14487Q372.7272 340.06674 372.71158 338.06674L372.71158 336.23862Q372.71158 334.14487 373.57095 333.06674Q374.43033 331.98862 376.05533 331.98862Q377.69595 331.98862 378.55533 333.06674Q379.4147 334.12924 379.43033 336.12924L379.43033 337.973ZM377.46158 335.95737Q377.46158 334.723 377.11783 334.1605Q376.77408 333.598 376.05533 333.598Q375.36783 333.598 375.02408 334.12924Q374.69595 334.6605 374.68033 335.80112L374.68033 338.223Q374.68033 339.44174 375.00845 340.0355Q375.33658 340.62924 376.07095 340.62924Q376.80533 340.62924 377.11783 340.06674Q377.44595 339.48862 377.46158 338.31674L377.46158 335.95737ZM380.71158 334.0355Q380.71158 333.12924 381.30533 332.56674Q381.89908 331.98862 382.8522 331.98862Q383.83658 331.98862 384.43033 332.55112Q385.02408 333.11362 385.02408 334.08237L385.02408 334.56674Q385.02408 335.48862 384.43033 336.05112Q383.83658 336.61362 382.86783 336.61362Q381.89908 336.61362 381.30533 336.05112Q380.71158 335.48862 380.71158 334.5355L380.71158 334.0355ZM382.02408 334.56674Q382.02408 334.973 382.25845 335.223Q382.49283 335.473 382.86783 335.473Q383.25845 335.473 383.4772 335.223Q383.71158 334.973 383.71158 334.55112L383.71158 334.0355Q383.71158 333.62924 383.4772 333.37924Q383.25845 333.12924 382.8522 333.12924Q382.4772 333.12924 382.24283 333.37924Q382.02408 333.62924 382.02408 334.06674L382.02408 334.56674ZM385.46158 339.64487Q385.46158 338.723 386.05533 338.1605Q386.6647 337.598 387.61783 337.598Q388.58658 337.598 389.18033 338.1605Q389.7897 338.70737 389.7897 339.67612L389.7897 340.17612Q389.7897 341.098 389.19595 341.6605Q388.61783 342.223 387.63345 342.223Q386.64908 342.223 386.05533 341.6605Q385.46158 341.08237 385.46158 340.14487L385.46158 339.64487ZM386.77408 340.17612Q386.77408 340.55112 387.02408 340.81674Q387.27408 341.08237 387.63345 341.08237Q388.4772 341.08237 388.4772 340.1605L388.4772 339.64487Q388.4772 339.23862 388.24283 338.98862Q388.00845 338.73862 387.61783 338.73862Q387.24283 338.73862 387.00845 338.98862Q386.77408 339.23862 386.77408 339.6605L386.77408 340.17612ZM383.25845 341.33237L382.30533 340.81674L387.1647 333.0355L388.11783 333.55112L383.25845 341.33237Z" fill-rule="nonzero"/><path fill="#ffffff" d="M139.32126 289.7871L137.35251 289.7871L137.35251 282.17773L134.99313 282.89648L134.99313 281.30273L139.11813 279.81836L139.32126 279.81836L139.32126 289.7871ZM144.54001 283.92773L145.58688 283.92773Q146.33688 283.92773 146.69626 283.55273Q147.07126 283.17773 147.07126 282.56836Q147.07126 281.95898 146.71188 281.63086Q146.35251 281.2871 145.72751 281.2871Q145.14938 281.2871 144.75876 281.5996Q144.38376 281.9121 144.38376 282.4121L142.41501 282.4121Q142.41501 281.63086 142.83688 281.02148Q143.25876 280.39648 144.00876 280.05273Q144.75876 279.69336 145.68063 279.69336Q147.25876 279.69336 148.14938 280.45898Q149.04001 281.20898 149.04001 282.5371Q149.04001 283.2246 148.61813 283.80273Q148.21188 284.36523 147.54001 284.67773Q148.36813 284.9746 148.77438 285.58398Q149.19626 286.17773 149.19626 286.99023Q149.19626 288.31836 148.22751 289.13086Q147.27438 289.92773 145.68063 289.92773Q144.18063 289.92773 143.22751 289.14648Q142.29001 288.3496 142.29001 287.05273L144.25876 287.05273Q144.25876 287.61523 144.68063 287.9746Q145.10251 288.33398 145.72751 288.33398Q146.43063 288.33398 146.82126 287.95898Q147.22751 287.58398 147.22751 286.9746Q147.22751 285.4746 145.58688 285.4746L144.54001 285.4746L144.54001 283.92773ZM150.71188 288.81836Q150.71188 288.3496 151.02438 288.05273Q151.35251 287.75586 151.82126 287.75586Q152.32126 287.75586 152.63376 288.05273Q152.94626 288.3496 152.94626 288.81836Q152.94626 289.2871 152.63376 289.58398Q152.32126 289.86523 151.82126 289.86523Q151.33688 289.86523 151.02438 289.58398Q150.71188 289.2871 150.71188 288.81836ZM161.22751 285.67773Q161.22751 287.74023 160.36813 288.83398Q159.52438 289.92773 157.86813 289.92773Q156.24313 289.92773 155.38376 288.8496Q154.52438 287.77148 154.50876 285.77148L154.50876 283.94336Q154.50876 281.8496 155.36813 280.77148Q156.22751 279.69336 157.85251 279.69336Q159.49313 279.69336 160.35251 280.77148Q161.21188 281.83398 161.22751 283.83398L161.22751 285.67773ZM159.25876 283.6621Q159.25876 282.42773 158.91501 281.86523Q158.57126 281.30273 157.85251 281.30273Q157.16501 281.30273 156.82126 281.83398Q156.49313 282.36523 156.47751 283.50586L156.47751 285.92773Q156.47751 287.14648 156.80563 287.74023Q157.13376 288.33398 157.86813 288.33398Q158.60251 288.33398 158.91501 287.77148Q159.24313 287.19336 159.25876 286.02148L159.25876 283.6621ZM162.50876 281.74023Q162.50876 280.83398 163.10251 280.27148Q163.69626 279.69336 164.64938 279.69336Q165.63376 279.69336 166.22751 280.25586Q166.82126 280.81836 166.82126 281.7871L166.82126 282.27148Q166.82126 283.19336 166.22751 283.75586Q165.63376 284.31836 164.66501 284.31836Q163.69626 284.31836 163.10251 283.75586Q162.50876 283.19336 162.50876 282.24023L162.50876 281.74023ZM163.82126 282.27148Q163.82126 282.67773 164.05563 282.92773Q164.29001 283.17773 164.66501 283.17773Q165.05563 283.17773 165.27438 282.92773Q165.50876 282.67773 165.50876 282.25586L165.50876 281.74023Q165.50876 281.33398 165.27438 281.08398Q165.05563 280.83398 164.64938 280.83398Q164.27438 280.83398 164.04001 281.08398Q163.82126 281.33398 163.82126 281.77148L163.82126 282.27148ZM167.25876 287.3496Q167.25876 286.42773 167.85251 285.86523Q168.46188 285.30273 169.41501 285.30273Q170.38376 285.30273 170.97751 285.86523Q171.58688 286.4121 171.58688 287.38086L171.58688 287.88086Q171.58688 288.80273 170.99313 289.36523Q170.41501 289.92773 169.43063 289.92773Q168.44626 289.92773 167.85251 289.36523Q167.25876 288.7871 167.25876 287.8496L167.25876 287.3496ZM168.57126 287.88086Q168.57126 288.25586 168.82126 288.52148Q169.07126 288.7871 169.43063 288.7871Q170.27438 288.7871 170.27438 287.86523L170.27438 287.3496Q170.27438 286.94336 170.04001 286.69336Q169.80563 286.44336 169.41501 286.44336Q169.04001 286.44336 168.80563 286.69336Q168.57126 286.94336 168.57126 287.36523L168.57126 287.88086ZM165.05563 289.0371L164.10251 288.52148L168.96188 280.74023L169.91501 281.25586L165.05563 289.0371Z" fill-rule="nonzero"/><path fill="#ffffff" d="M114.30482 234.5058L107.47669 234.5058L107.47669 233.14642L110.69544 229.72455Q111.36732 228.99017 111.67982 228.45892Q112.00794 227.91205 112.00794 227.42767Q112.00794 226.77142 111.66419 226.39642Q111.33607 226.0058 110.71107 226.0058Q110.03919 226.0058 109.64857 226.47455Q109.27357 226.92767 109.27357 227.67767L107.28919 227.67767Q107.28919 226.77142 107.71107 226.02142Q108.14857 225.27142 108.94544 224.84955Q109.74232 224.41205 110.74232 224.41205Q112.27357 224.41205 113.11732 225.16205Q113.97669 225.89642 113.97669 227.24017Q113.97669 227.97455 113.58607 228.74017Q113.21107 229.5058 112.28919 230.52142L110.02357 232.91205L114.30482 232.91205L114.30482 234.5058ZM115.66419 233.53705Q115.66419 233.0683 115.97669 232.77142Q116.30482 232.47455 116.77357 232.47455Q117.27357 232.47455 117.58607 232.77142Q117.89857 233.0683 117.89857 233.53705Q117.89857 234.0058 117.58607 234.30267Q117.27357 234.58392 116.77357 234.58392Q116.28919 234.58392 115.97669 234.30267Q115.66419 234.0058 115.66419 233.53705ZM126.24232 225.66205L122.39857 234.5058L120.32044 234.5058L124.16419 226.14642L119.22669 226.14642L119.22669 224.55267L126.24232 224.55267L126.24232 225.66205ZM127.46107 226.45892Q127.46107 225.55267 128.05481 224.99017Q128.64856 224.41205 129.60168 224.41205Q130.58606 224.41205 131.17981 224.97455Q131.77356 225.53705 131.77356 226.5058L131.77356 226.99017Q131.77356 227.91205 131.17981 228.47455Q130.58606 229.03705 129.61731 229.03705Q128.64856 229.03705 128.05481 228.47455Q127.46107 227.91205 127.46107 226.95892L127.46107 226.45892ZM128.77356 226.99017Q128.77356 227.39642 129.00793 227.64642Q129.24231 227.89642 129.61731 227.89642Q130.00793 227.89642 130.22668 227.64642Q130.46106 227.39642 130.46106 226.97455L130.46106 226.45892Q130.46106 226.05267 130.22668 225.80267Q130.00793 225.55267 129.60168 225.55267Q129.22668 225.55267 128.99231 225.80267Q128.77356 226.05267 128.77356 226.49017L128.77356 226.99017ZM132.21106 232.0683Q132.21106 231.14642 132.80481 230.58392Q133.41418 230.02142 134.36731 230.02142Q135.33606 230.02142 135.92981 230.58392Q136.53918 231.1308 136.53918 232.09955L136.53918 232.59955Q136.53918 233.52142 135.94543 234.08392Q135.36731 234.64642 134.38293 234.64642Q133.39856 234.64642 132.80481 234.08392Q132.21106 233.5058 132.21106 232.5683L132.21106 232.0683ZM133.52356 232.59955Q133.52356 232.97455 133.77356 233.24017Q134.02356 233.5058 134.38293 233.5058Q135.22668 233.5058 135.22668 232.58392L135.22668 232.0683Q135.22668 231.66205 134.99231 231.41205Q134.75793 231.16205 134.36731 231.16205Q133.99231 231.16205 133.75793 231.41205Q133.52356 231.66205 133.52356 232.08392L133.52356 232.59955ZM130.00793 233.7558L129.05481 233.24017L133.91418 225.45892L134.86731 225.97455L130.00793 233.7558Z" fill-rule="nonzero"/><path fill="#ffffff" d="M152.90762 168.9452L150.93887 168.9452L150.93887 161.33583L148.5795 162.05458L148.5795 160.46083L152.7045 158.97646L152.90762 158.97646L152.90762 168.9452ZM161.47012 158.8827L161.47012 160.52333L161.28262 160.52333Q159.93887 160.53896 159.12637 161.21083Q158.31387 161.8827 158.142 163.08583Q158.93887 162.28896 160.142 162.28896Q161.4545 162.28896 162.22012 163.22646Q162.98575 164.14833 162.98575 165.66396Q162.98575 166.6327 162.56387 167.42958Q162.142 168.21083 161.36075 168.64833Q160.59512 169.08583 159.62637 169.08583Q158.06387 169.08583 157.09512 167.99208Q156.12637 166.89833 156.12637 165.0702L156.12637 164.35146Q156.12637 162.74208 156.73575 161.5077Q157.34512 160.2577 158.48575 159.58583Q159.642 158.89833 161.142 158.8827L161.47012 158.8827ZM159.54825 163.86708Q159.06387 163.86708 158.67325 164.11708Q158.28262 164.36708 158.11075 164.78896L158.11075 165.3827Q158.11075 166.36708 158.50137 166.92958Q158.892 167.49208 159.59512 167.49208Q160.22012 167.49208 160.61075 166.99208Q161.017 166.47646 161.017 165.67958Q161.017 164.86708 160.61075 164.36708Q160.22012 163.86708 159.54825 163.86708ZM164.29825 167.97646Q164.29825 167.5077 164.61075 167.21083Q164.93887 166.91396 165.40762 166.91396Q165.90762 166.91396 166.22012 167.21083Q166.53262 167.5077 166.53262 167.97646Q166.53262 168.4452 166.22012 168.74208Q165.90762 169.02333 165.40762 169.02333Q164.92325 169.02333 164.61075 168.74208Q164.29825 168.4452 164.29825 167.97646ZM174.87637 160.10146L171.03262 168.9452L168.9545 168.9452L172.79825 160.58583L167.86075 160.58583L167.86075 158.99208L174.87637 158.99208L174.87637 160.10146ZM176.09512 160.89833Q176.09512 159.99208 176.68887 159.42958Q177.28262 158.85146 178.23575 158.85146Q179.22012 158.85146 179.81387 159.41396Q180.40762 159.97646 180.40762 160.9452L180.40762 161.42958Q180.40762 162.35146 179.81387 162.91396Q179.22012 163.47646 178.25137 163.47646Q177.28262 163.47646 176.68887 162.91396Q176.09512 162.35146 176.09512 161.39833L176.09512 160.89833ZM177.40762 161.42958Q177.40762 161.83583 177.642 162.08583Q177.87637 162.33583 178.25137 162.33583Q178.642 162.33583 178.86075 162.08583Q179.09512 161.83583 179.09512 161.41396L179.09512 160.89833Q179.09512 160.49208 178.86075 160.24208Q178.642 159.99208 178.23575 159.99208Q177.86075 159.99208 177.62637 160.24208Q177.40762 160.49208 177.40762 160.92958L177.40762 161.42958ZM180.84512 166.5077Q180.84512 165.58583 181.43887 165.02333Q182.04825 164.46083 183.00137 164.46083Q183.97012 164.46083 184.56387 165.02333Q185.17325 165.5702 185.17325 166.53896L185.17325 167.03896Q185.17325 167.96083 184.5795 168.52333Q184.00137 169.08583 183.017 169.08583Q182.03262 169.08583 181.43887 168.52333Q180.84512 167.9452 180.84512 167.0077L180.84512 166.5077ZM182.15762 167.03896Q182.15762 167.41396 182.40762 167.67958Q182.65762 167.9452 183.017 167.9452Q183.86075 167.9452 183.86075 167.02333L183.86075 166.5077Q183.86075 166.10146 183.62637 165.85146Q183.392 165.60146 183.00137 165.60146Q182.62637 165.60146 182.392 165.85146Q182.15762 166.10146 182.15762 166.52333L182.15762 167.03896ZM178.642 168.1952L177.68887 167.67958L182.54825 159.89833L183.50137 160.41396L178.642 168.1952Z" fill-rule="nonzero"/><path fill="#ffffff" d="M256.43555 111.48493L256.43555 113.12556L256.24805 113.12556Q254.90431 113.14118 254.09181 113.81306Q253.27931 114.48493 253.10744 115.68806Q253.90431 114.89118 255.10744 114.89118Q256.41992 114.89118 257.18555 115.82868Q257.95117 116.75056 257.95117 118.26618Q257.95117 119.23493 257.5293 120.03181Q257.10742 120.81306 256.32617 121.25056Q255.56056 121.68806 254.59181 121.68806Q253.02931 121.68806 252.06056 120.59431Q251.09181 119.50056 251.09181 117.67243L251.09181 116.95368Q251.09181 115.34431 251.70119 114.10993Q252.31056 112.85993 253.45119 112.18806Q254.60744 111.50056 256.10742 111.48493L256.43555 111.48493ZM254.51369 116.46931Q254.02931 116.46931 253.63869 116.71931Q253.24806 116.96931 253.07619 117.39118L253.07619 117.98493Q253.07619 118.96931 253.46681 119.53181Q253.85744 120.09431 254.56056 120.09431Q255.18556 120.09431 255.57619 119.59431Q255.98244 119.07868 255.98244 118.28181Q255.98244 117.46931 255.57619 116.96931Q255.18556 116.46931 254.51369 116.46931ZM259.26367 120.57868Q259.26367 120.10993 259.57617 119.81306Q259.9043 119.51618 260.37305 119.51618Q260.87305 119.51618 261.18555 119.81306Q261.49805 120.10993 261.49805 120.57868Q261.49805 121.04743 261.18555 121.34431Q260.87305 121.62556 260.37305 121.62556Q259.88867 121.62556 259.57617 121.34431Q259.26367 121.04743 259.26367 120.57868ZM269.8418 112.70368L265.99805 121.54743L263.91992 121.54743L267.76367 113.18806L262.82617 113.18806L262.82617 111.59431L269.8418 111.59431L269.8418 112.70368ZM271.06055 113.50056Q271.06055 112.59431 271.6543 112.03181Q272.24805 111.45368 273.20117 111.45368Q274.18555 111.45368 274.7793 112.01618Q275.37305 112.57868 275.37305 113.54743L275.37305 114.03181Q275.37305 114.95368 274.7793 115.51618Q274.18555 116.07868 273.2168 116.07868Q272.24805 116.07868 271.6543 115.51618Q271.06055 114.95368 271.06055 114.00056L271.06055 113.50056ZM272.37305 114.03181Q272.37305 114.43806 272.60742 114.68806Q272.8418 114.93806 273.2168 114.93806Q273.60742 114.93806 273.82617 114.68806Q274.06055 114.43806 274.06055 114.01618L274.06055 113.50056Q274.06055 113.09431 273.82617 112.84431Q273.60742 112.59431 273.20117 112.59431Q272.82617 112.59431 272.5918 112.84431Q272.37305 113.09431 272.37305 113.53181L272.37305 114.03181ZM275.81055 119.10993Q275.81055 118.18806 276.4043 117.62556Q277.01367 117.06306 277.9668 117.06306Q278.93555 117.06306 279.5293 117.62556Q280.13867 118.17243 280.13867 119.14118L280.13867 119.64118Q280.13867 120.56306 279.54492 121.12556Q278.9668 121.68806 277.98242 121.68806Q276.99805 121.68806 276.4043 121.12556Q275.81055 120.54743 275.81055 119.60993L275.81055 119.10993ZM277.12305 119.64118Q277.12305 120.01618 277.37305 120.28181Q277.62305 120.54743 277.98242 120.54743Q278.82617 120.54743 278.82617 119.62556L278.82617 119.10993Q278.82617 118.70368 278.5918 118.45368Q278.35742 118.20368 277.9668 118.20368Q277.5918 118.20368 277.35742 118.45368Q277.12305 118.70368 277.12305 119.12556L277.12305 119.64118ZM273.60742 120.79743L272.6543 120.28181L277.51367 112.50056L278.4668 113.01618L273.60742 120.79743Z" fill-rule="nonzero"/><path fill="#783f04" d="M44.897762 475.17325C44.897762 478.48694 42.211468 481.17325 38.897762 481.17325C35.584053 481.17325 32.897762 478.48694 32.897762 475.17325C32.897762 471.85953 35.584053 469.17325 38.897762 469.17325C42.211468 469.17325 44.897762 471.85953 44.897762 475.17325Z" fill-rule="nonzero"/><path fill="#ffffff" d="M60.507137 477.7045L55.741512 477.7045L54.663387 480.67325L53.116512 480.67325L57.460262 469.29825L58.772762 469.29825L63.132137 480.67325L61.585262 480.67325L60.507137 477.7045ZM56.194637 476.47012L60.054012 476.47012L58.116512 471.142L56.194637 476.47012ZM65.366516 472.22012L65.41339 473.28262Q66.38214 472.06387 67.94464 472.06387Q70.616516 472.06387 70.647766 475.0795L70.647766 480.67325L69.19464 480.67325L69.19464 475.0795Q69.19464 474.15762 68.772766 473.72012Q68.366516 473.28262 67.50714 473.28262Q66.804016 473.28262 66.272766 473.65762Q65.741516 474.03262 65.44464 474.642L65.44464 480.67325L63.991512 480.67325L63.991512 472.22012L65.366516 472.22012ZM72.647766 476.37637Q72.647766 474.392 73.554016 473.23575Q74.47589 472.06387 75.991516 472.06387Q77.53839 472.06387 78.397766 473.15762L78.47589 472.22012L79.78839 472.22012L79.78839 480.47012Q79.78839 482.11075 78.81964 483.04825Q77.85089 484.00137 76.210266 484.00137Q75.28839 484.00137 74.41339 483.61075Q73.53839 483.22012 73.085266 482.54825L73.835266 481.67325Q74.75714 482.8295 76.10089 482.8295Q77.16339 482.8295 77.741516 482.23575Q78.335266 481.642 78.335266 480.54825L78.335266 479.8295Q77.47589 480.8295 75.97589 480.8295Q74.491516 480.8295 73.56964 479.642Q72.647766 478.43887 72.647766 476.37637ZM74.10089 476.53262Q74.10089 477.97012 74.679016 478.78262Q75.272766 479.59512 76.335266 479.59512Q77.69464 479.59512 78.335266 478.36075L78.335266 474.50137Q77.679016 473.28262 76.35089 473.28262Q75.28839 473.28262 74.69464 474.11075Q74.10089 474.92325 74.10089 476.53262ZM85.50714 480.8295Q83.78839 480.8295 82.710266 479.7045Q81.63214 478.56387 81.63214 476.67325L81.63214 476.40762Q81.63214 475.15762 82.10089 474.17325Q82.585266 473.17325 83.44464 472.62637Q84.31964 472.06387 85.31964 472.06387Q86.97589 472.06387 87.88214 473.15762Q88.804016 474.23575 88.804016 476.25137L88.804016 476.86075L83.06964 476.86075Q83.10089 478.11075 83.804016 478.87637Q84.50714 479.642 85.585266 479.642Q86.35089 479.642 86.88214 479.3295Q87.41339 479.017 87.804016 478.50137L88.69464 479.18887Q87.63214 480.8295 85.50714 480.8295ZM85.31964 473.25137Q84.44464 473.25137 83.85089 473.892Q83.25714 474.517 83.116516 475.67325L87.35089 475.67325L87.35089 475.56387Q87.28839 474.4545 86.75714 473.86075Q86.22589 473.25137 85.31964 473.25137ZM91.56964 480.67325L90.116516 480.67325L90.116516 468.67325L91.56964 468.67325L91.56964 480.67325Z" fill-rule="nonzero"/><path fill="#cc4125" d="M120.89776 475.17325C120.89776 478.48694 118.21147 481.17325 114.89776 481.17325C111.58405 481.17325 108.89776 478.48694 108.89776 475.17325C108.89776 471.85953 111.58405 469.17325 114.89776 469.17325C118.21147 469.17325 120.89776 471.85953 120.89776 475.17325Z" fill-rule="nonzero"/><path fill="#ffffff" d="M133.56964 475.59512Q131.64777 475.04825 130.75714 474.23575Q129.88214 473.42325 129.88214 472.23575Q129.88214 470.892 130.96027 470.017Q132.03839 469.142 133.75714 469.142Q134.92902 469.142 135.83527 469.59512Q136.75714 470.04825 137.25714 470.84512Q137.77277 471.642 137.77277 472.5795L136.25714 472.5795Q136.25714 471.54825 135.60089 470.97012Q134.94464 470.37637 133.75714 470.37637Q132.64777 470.37637 132.02277 470.86075Q131.39777 471.34512 131.39777 472.22012Q131.39777 472.90762 131.99152 473.392Q132.58527 473.87637 133.99152 474.28262Q135.41339 474.67325 136.21027 475.15762Q137.02277 475.62637 137.39777 476.267Q137.78839 476.90762 137.78839 477.78262Q137.78839 479.15762 136.71027 480.00137Q135.63214 480.8295 133.83527 480.8295Q132.66339 480.8295 131.64777 480.37637Q130.63214 479.92325 130.06964 479.142Q129.52277 478.36075 129.52277 477.37637L131.03839 477.37637Q131.03839 478.40762 131.78839 479.00137Q132.55402 479.59512 133.83527 479.59512Q135.02277 479.59512 135.64777 479.11075Q136.28839 478.62637 136.28839 477.79825Q136.28839 476.9545 135.69464 476.50137Q135.11652 476.04825 133.56964 475.59512ZM143.50714 480.8295Q141.78839 480.8295 140.71027 479.7045Q139.63214 478.56387 139.63214 476.67325L139.63214 476.40762Q139.63214 475.15762 140.10089 474.17325Q140.58527 473.17325 141.44464 472.62637Q142.31964 472.06387 143.31964 472.06387Q144.97589 472.06387 145.88214 473.15762Q146.80402 474.23575 146.80402 476.25137L146.80402 476.86075L141.06964 476.86075Q141.10089 478.11075 141.80402 478.87637Q142.50714 479.642 143.58527 479.642Q144.35089 479.642 144.88214 479.3295Q145.41339 479.017 145.80402 478.50137L146.69464 479.18887Q145.63214 480.8295 143.50714 480.8295ZM143.31964 473.25137Q142.44464 473.25137 141.85089 473.892Q141.25714 474.517 141.11652 475.67325L145.35089 475.67325L145.35089 475.56387Q145.28839 474.4545 144.75714 473.86075Q144.22589 473.25137 143.31964 473.25137ZM151.50714 480.8295Q149.78839 480.8295 148.71027 479.7045Q147.63214 478.56387 147.63214 476.67325L147.63214 476.40762Q147.63214 475.15762 148.10089 474.17325Q148.58527 473.17325 149.44464 472.62637Q150.31964 472.06387 151.31964 472.06387Q152.97589 472.06387 153.88214 473.15762Q154.80402 474.23575 154.80402 476.25137L154.80402 476.86075L149.06964 476.86075Q149.10089 478.11075 149.80402 478.87637Q150.50714 479.642 151.58527 479.642Q152.35089 479.642 152.88214 479.3295Q153.41339 479.017 153.80402 478.50137L154.69464 479.18887Q153.63214 480.8295 151.50714 480.8295ZM151.31964 473.25137Q150.44464 473.25137 149.85089 473.892Q149.25714 474.517 149.11652 475.67325L153.35089 475.67325L153.35089 475.56387Q153.28839 474.4545 152.75714 473.86075Q152.22589 473.25137 151.31964 473.25137ZM155.64777 476.37637Q155.64777 474.42325 156.56964 473.25137Q157.49152 472.06387 158.97589 472.06387Q160.46027 472.06387 161.33527 473.0795L161.33527 468.67325L162.77277 468.67325L162.77277 480.67325L161.44464 480.67325L161.38214 479.767Q160.50714 480.8295 158.96027 480.8295Q157.49152 480.8295 156.56964 479.62637Q155.64777 478.42325 155.64777 476.48575L155.64777 476.37637ZM157.08527 476.53262Q157.08527 477.97012 157.67902 478.78262Q158.27277 479.59512 159.31964 479.59512Q160.69464 479.59512 161.33527 478.36075L161.33527 474.48575Q160.67902 473.28262 159.33527 473.28262Q158.27277 473.28262 157.67902 474.11075Q157.08527 474.92325 157.08527 476.53262Z" fill-rule="nonzero"/><path fill="#e06666" d="M191.89777 475.17325C191.89777 478.48694 189.21147 481.17325 185.89777 481.17325C182.58405 481.17325 179.89777 478.48694 179.89777 475.17325C179.89777 471.85953 182.58405 469.17325 185.89777 469.17325C189.21147 469.17325 191.89777 471.85953 191.89777 475.17325Z" fill-rule="nonzero"/><path fill="#ffffff" d="M202.72589 476.22012L202.72589 480.67325L201.22589 480.67325L201.22589 469.29825L205.41339 469.29825Q207.28839 469.29825 208.33527 470.25137Q209.39777 471.2045 209.39777 472.767Q209.39777 474.42325 208.36652 475.3295Q207.33527 476.22012 205.39777 476.22012L202.72589 476.22012ZM202.72589 474.98575L205.41339 474.98575Q206.61652 474.98575 207.25714 474.42325Q207.89777 473.86075 207.89777 472.78262Q207.89777 471.767 207.25714 471.15762Q206.61652 470.54825 205.50714 470.53262L202.72589 470.53262L202.72589 474.98575ZM215.08527 473.517Q214.75714 473.4545 214.36652 473.4545Q212.94464 473.4545 212.44464 474.67325L212.44464 480.67325L210.99152 480.67325L210.99152 472.22012L212.39777 472.22012L212.42902 473.18887Q213.13214 472.06387 214.44464 472.06387Q214.86652 472.06387 215.08527 472.17325L215.08527 473.517ZM217.56964 480.67325L216.11652 480.67325L216.11652 472.22012L217.56964 472.22012L217.56964 480.67325ZM216.00714 469.97012Q216.00714 469.62637 216.21027 469.392Q216.42902 469.142 216.85089 469.142Q217.27277 469.142 217.49152 469.392Q217.71027 469.62637 217.71027 469.98575Q217.71027 470.3295 217.49152 470.56387Q217.27277 470.79825 216.85089 470.79825Q216.42902 470.79825 216.21027 470.56387Q216.00714 470.3295 216.00714 469.97012ZM222.78839 478.7045L224.88214 472.22012L226.35089 472.22012L223.31964 480.67325L222.22589 480.67325L219.16339 472.22012L220.63214 472.22012L222.78839 478.7045ZM233.21027 480.67325Q233.08527 480.42325 233.00714 479.78262Q232.00714 480.8295 230.60089 480.8295Q229.35089 480.8295 228.55402 480.12637Q227.75714 479.40762 227.75714 478.3295Q227.75714 477.00137 228.75714 476.28262Q229.75714 475.54825 231.58527 475.54825L232.99152 475.54825L232.99152 474.87637Q232.99152 474.12637 232.53839 473.67325Q232.08527 473.22012 231.19464 473.22012Q230.42902 473.22012 229.89777 473.61075Q229.38214 474.00137 229.38214 474.56387L227.92902 474.56387Q227.92902 473.92325 228.36652 473.34512Q228.81964 472.75137 229.58527 472.40762Q230.36652 472.06387 231.28839 472.06387Q232.74152 472.06387 233.56964 472.79825Q234.39777 473.517 234.42902 474.79825L234.42902 478.68887Q234.42902 479.86075 234.72589 480.54825L234.72589 480.67325L233.21027 480.67325ZM230.81964 479.56387Q231.49152 479.56387 232.10089 479.22012Q232.71027 478.86075 232.99152 478.29825L232.99152 476.56387L231.85089 476.56387Q229.19464 476.56387 229.19464 478.12637Q229.19464 478.79825 229.64777 479.18887Q230.10089 479.56387 230.81964 479.56387ZM238.96027 470.17325L238.96027 472.22012L240.53839 472.22012L240.53839 473.3295L238.96027 473.3295L238.96027 478.5795Q238.96027 479.0795 239.16339 479.34512Q239.38214 479.59512 239.88214 479.59512Q240.13214 479.59512 240.56964 479.50137L240.56964 480.67325Q240.00714 480.8295 239.46027 480.8295Q238.49152 480.8295 237.99152 480.25137Q237.50714 479.65762 237.50714 478.5795L237.50714 473.3295L235.97589 473.3295L235.97589 472.22012L237.50714 472.22012L237.50714 470.17325L238.96027 470.17325ZM245.50714 480.8295Q243.78839 480.8295 242.71027 479.7045Q241.63214 478.56387 241.63214 476.67325L241.63214 476.40762Q241.63214 475.15762 242.10089 474.17325Q242.58527 473.17325 243.44464 472.62637Q244.31964 472.06387 245.31964 472.06387Q246.97589 472.06387 247.88214 473.15762Q248.80402 474.23575 248.80402 476.25137L248.80402 476.86075L243.06964 476.86075Q243.10089 478.11075 243.80402 478.87637Q244.50714 479.642 245.58527 479.642Q246.35089 479.642 246.88214 479.3295Q247.41339 479.017 247.80402 478.50137L248.69464 479.18887Q247.63214 480.8295 245.50714 480.8295ZM245.31964 473.25137Q244.44464 473.25137 243.85089 473.892Q243.25714 474.517 243.11652 475.67325L247.35089 475.67325L247.35089 475.56387Q247.28839 474.4545 246.75714 473.86075Q246.22589 473.25137 245.31964 473.25137Z" fill-rule="nonzero"/><path fill="#f1c232" d="M276.89777 475.17325C276.89777 478.48694 274.21146 481.17325 270.89777 481.17325C267.58405 481.17325 264.89777 478.48694 264.89777 475.17325C264.89777 471.85953 267.58405 469.17325 270.89777 469.17325C274.21146 469.17325 276.89777 471.85953 276.89777 475.17325Z" fill-rule="nonzero"/><path fill="#ffffff" d="M287.7259 476.22012L287.7259 480.67325L286.2259 480.67325L286.2259 469.29825L290.4134 469.29825Q292.2884 469.29825 293.33527 470.25137Q294.39777 471.2045 294.39777 472.767Q294.39777 474.42325 293.36652 475.3295Q292.33527 476.22012 290.39777 476.22012L287.7259 476.22012ZM287.7259 474.98575L290.4134 474.98575Q291.61652 474.98575 292.25714 474.42325Q292.89777 473.86075 292.89777 472.78262Q292.89777 471.767 292.25714 471.15762Q291.61652 470.54825 290.50714 470.53262L287.7259 470.53262L287.7259 474.98575ZM301.21027 479.8295Q300.36652 480.8295 298.74152 480.8295Q297.38214 480.8295 296.67902 480.04825Q295.9759 479.25137 295.96027 477.72012L295.96027 472.22012L297.4134 472.22012L297.4134 477.67325Q297.4134 479.59512 298.9759 479.59512Q300.63214 479.59512 301.17902 478.36075L301.17902 472.22012L302.61652 472.22012L302.61652 480.67325L301.24152 480.67325L301.21027 479.8295ZM312.14777 476.53262Q312.14777 478.47012 311.25714 479.65762Q310.36652 480.8295 308.86652 480.8295Q307.27277 480.8295 306.39777 479.68887L306.31964 480.67325L304.99152 480.67325L304.99152 468.67325L306.44464 468.67325L306.44464 473.142Q307.31964 472.06387 308.8509 472.06387Q310.39777 472.06387 311.27277 473.23575Q312.14777 474.392 312.14777 476.40762L312.14777 476.53262ZM310.71027 476.37637Q310.71027 474.892 310.13214 474.09512Q309.56964 473.28262 308.49152 473.28262Q307.06964 473.28262 306.44464 474.61075L306.44464 478.267Q307.1009 479.59512 308.50714 479.59512Q309.55402 479.59512 310.13214 478.79825Q310.71027 477.98575 310.71027 476.37637ZM315.56964 480.67325L314.11652 480.67325L314.11652 468.67325L315.56964 468.67325L315.56964 480.67325ZM319.56964 480.67325L318.11652 480.67325L318.11652 472.22012L319.56964 472.22012L319.56964 480.67325ZM318.00714 469.97012Q318.00714 469.62637 318.21027 469.392Q318.42902 469.142 318.8509 469.142Q319.27277 469.142 319.49152 469.392Q319.71027 469.62637 319.71027 469.98575Q319.71027 470.3295 319.49152 470.56387Q319.27277 470.79825 318.8509 470.79825Q318.42902 470.79825 318.21027 470.56387Q318.00714 470.3295 318.00714 469.97012ZM325.38214 479.642Q326.1634 479.642 326.74152 479.17325Q327.31964 478.7045 327.38214 478.00137L328.74152 478.00137Q328.71027 478.73575 328.24152 479.392Q327.7884 480.04825 327.00714 480.43887Q326.24152 480.8295 325.38214 480.8295Q323.6634 480.8295 322.63214 479.67325Q321.61652 478.517 321.61652 476.517L321.61652 476.28262Q321.61652 475.04825 322.06964 474.09512Q322.52277 473.12637 323.36652 472.59512Q324.2259 472.06387 325.38214 472.06387Q326.80402 472.06387 327.74152 472.92325Q328.67902 473.767 328.74152 475.12637L327.38214 475.12637Q327.31964 474.29825 326.75714 473.78262Q326.19464 473.25137 325.38214 473.25137Q324.27277 473.25137 323.6634 474.04825Q323.06964 474.8295 323.06964 476.3295L323.06964 476.61075Q323.06964 478.06387 323.6634 478.86075Q324.27277 479.642 325.38214 479.642ZM333.94464 476.04825Q333.94464 474.28262 334.4134 472.65762Q334.88214 471.03262 335.81964 469.7045Q336.75714 468.37637 337.77277 467.8295L338.06964 468.78262Q336.92902 469.65762 336.19464 471.4545Q335.46027 473.25137 335.39777 475.48575L335.38214 476.142Q335.38214 479.15762 336.49152 481.392Q337.14777 482.72012 338.06964 483.47012L337.77277 484.34512Q336.7259 483.767 335.7884 482.40762Q333.94464 479.75137 333.94464 476.04825ZM340.83527 480.67325L339.33527 480.67325L339.33527 469.29825L340.83527 469.29825L340.83527 480.67325ZM343.2259 480.67325L343.2259 469.29825L346.42902 469.29825Q347.9134 469.29825 349.05402 469.9545Q350.19464 470.61075 350.81964 471.8295Q351.44464 473.03262 351.44464 474.59512L351.44464 475.3295Q351.44464 476.93887 350.81964 478.15762Q350.21027 479.36075 349.05402 480.017Q347.89777 480.65762 346.36652 480.67325L343.2259 480.67325ZM344.7259 470.53262L344.7259 479.43887L346.30402 479.43887Q348.0384 479.43887 348.99152 478.36075Q349.96027 477.28262 349.96027 475.29825L349.96027 474.62637Q349.96027 472.68887 349.05402 471.62637Q348.14777 470.54825 346.4759 470.53262L344.7259 470.53262ZM362.9759 475.34512Q362.9759 477.017 362.4134 478.267Q361.8509 479.517 360.81964 480.17325Q359.7884 480.8295 358.4134 480.8295Q357.06964 480.8295 356.02277 480.17325Q354.99152 479.50137 354.4134 478.28262Q353.83527 477.06387 353.81964 475.4545L353.81964 474.62637Q353.81964 472.98575 354.38214 471.73575Q354.96027 470.47012 356.00714 469.81387Q357.05402 469.142 358.39777 469.142Q359.75714 469.142 360.80402 469.79825Q361.8509 470.4545 362.4134 471.72012Q362.9759 472.97012 362.9759 474.62637L362.9759 475.34512ZM361.4759 474.61075Q361.4759 472.59512 360.6634 471.517Q359.8509 470.42325 358.39777 470.42325Q356.9759 470.42325 356.14777 471.517Q355.33527 472.59512 355.31964 474.517L355.31964 475.34512Q355.31964 477.31387 356.13214 478.43887Q356.96027 479.54825 358.4134 479.54825Q359.86652 479.54825 360.6634 478.50137Q361.46027 477.43887 361.4759 475.4545L361.4759 474.61075ZM368.33527 476.12637Q368.33527 477.87637 367.86652 479.48575Q367.4134 481.0795 366.4759 482.42325Q365.5384 483.78262 364.50714 484.34512L364.19464 483.47012Q365.39777 482.54825 366.13214 480.61075Q366.86652 478.65762 366.88214 476.28262L366.88214 476.03262Q366.88214 474.392 366.5384 472.98575Q366.19464 471.5795 365.56964 470.47012Q364.96027 469.34512 364.19464 468.72012L364.50714 467.8295Q365.5384 468.40762 366.46027 469.75137Q367.39777 471.0795 367.86652 472.68887Q368.33527 474.29825 368.33527 476.12637Z" fill-rule="nonzero"/><path fill="#0b5394" d="M397.89777 475.17325C397.89777 478.48694 395.21146 481.17325 391.89777 481.17325C388.58405 481.17325 385.89777 478.48694 385.89777 475.17325C385.89777 471.85953 388.58405 469.17325 391.89777 469.17325C395.21146 469.17325 397.89777 471.85953 397.89777 475.17325Z" fill-rule="nonzero"/><path fill="#ffffff" d="M415.96027 480.67325L414.46027 480.67325L408.7259 471.90762L408.7259 480.67325L407.2259 480.67325L407.2259 469.29825L408.7259 469.29825L414.4759 478.09512L414.4759 469.29825L415.96027 469.29825L415.96027 480.67325ZM417.61652 476.36075Q417.61652 475.12637 418.1009 474.142Q418.58527 473.142 419.46027 472.61075Q420.33527 472.06387 421.44464 472.06387Q423.17902 472.06387 424.24152 473.267Q425.30402 474.4545 425.30402 476.43887L425.30402 476.53262Q425.30402 477.767 424.83527 478.75137Q424.36652 479.73575 423.4759 480.28262Q422.6009 480.8295 421.46027 480.8295Q419.74152 480.8295 418.67902 479.642Q417.61652 478.43887 417.61652 476.47012L417.61652 476.36075ZM419.06964 476.53262Q419.06964 477.93887 419.71027 478.79825Q420.36652 479.642 421.46027 479.642Q422.56964 479.642 423.21027 478.78262Q423.86652 477.92325 423.86652 476.36075Q423.86652 474.97012 423.19464 474.11075Q422.5384 473.25137 421.44464 473.25137Q420.38214 473.25137 419.7259 474.11075Q419.06964 474.9545 419.06964 476.53262ZM426.64777 476.37637Q426.64777 474.42325 427.56964 473.25137Q428.49152 472.06387 429.9759 472.06387Q431.46027 472.06387 432.33527 473.0795L432.33527 468.67325L433.77277 468.67325L433.77277 480.67325L432.44464 480.67325L432.38214 479.767Q431.50714 480.8295 429.96027 480.8295Q428.49152 480.8295 427.56964 479.62637Q426.64777 478.42325 426.64777 476.48575L426.64777 476.37637ZM428.08527 476.53262Q428.08527 477.97012 428.67902 478.78262Q429.27277 479.59512 430.31964 479.59512Q431.69464 479.59512 432.33527 478.36075L432.33527 474.48575Q431.67902 473.28262 430.33527 473.28262Q429.27277 473.28262 428.67902 474.11075Q428.08527 474.92325 428.08527 476.53262ZM439.50714 480.8295Q437.7884 480.8295 436.71027 479.7045Q435.63214 478.56387 435.63214 476.67325L435.63214 476.40762Q435.63214 475.15762 436.1009 474.17325Q436.58527 473.17325 437.44464 472.62637Q438.31964 472.06387 439.31964 472.06387Q440.9759 472.06387 441.88214 473.15762Q442.80402 474.23575 442.80402 476.25137L442.80402 476.86075L437.06964 476.86075Q437.1009 478.11075 437.80402 478.87637Q438.50714 479.642 439.58527 479.642Q440.3509 479.642 440.88214 479.3295Q441.4134 479.017 441.80402 478.50137L442.69464 479.18887Q441.63214 480.8295 439.50714 480.8295ZM439.31964 473.25137Q438.44464 473.25137 437.8509 473.892Q437.25714 474.517 437.11652 475.67325L441.3509 475.67325L441.3509 475.56387Q441.2884 474.4545 440.75714 473.86075Q440.2259 473.25137 439.31964 473.25137ZM452.39777 476.06387L449.7259 476.06387L449.7259 480.67325L448.21027 480.67325L448.21027 469.29825L451.9759 469.29825Q453.89777 469.29825 454.92902 470.17325Q455.9759 471.04825 455.9759 472.72012Q455.9759 473.78262 455.39777 474.5795Q454.81964 475.36075 453.80402 475.75137L456.4759 480.5795L456.4759 480.67325L454.86652 480.67325L452.39777 476.06387ZM449.7259 474.84512L452.02277 474.84512Q453.14777 474.84512 453.80402 474.267Q454.46027 473.68887 454.46027 472.72012Q454.46027 471.65762 453.83527 471.09512Q453.21027 470.53262 452.02277 470.53262L449.7259 470.53262L449.7259 474.84512ZM463.21027 479.8295Q462.36652 480.8295 460.74152 480.8295Q459.38214 480.8295 458.67902 480.04825Q457.9759 479.25137 457.96027 477.72012L457.96027 472.22012L459.4134 472.22012L459.4134 477.67325Q459.4134 479.59512 460.9759 479.59512Q462.63214 479.59512 463.17902 478.36075L463.17902 472.22012L464.61652 472.22012L464.61652 480.67325L463.24152 480.67325L463.21027 479.8295ZM468.36652 472.22012L468.4134 473.28262Q469.38214 472.06387 470.94464 472.06387Q473.61652 472.06387 473.64777 475.0795L473.64777 480.67325L472.19464 480.67325L472.19464 475.0795Q472.19464 474.15762 471.77277 473.72012Q471.36652 473.28262 470.50714 473.28262Q469.80402 473.28262 469.27277 473.65762Q468.74152 474.03262 468.44464 474.642L468.44464 480.67325L466.99152 480.67325L466.99152 472.22012L468.36652 472.22012ZM477.36652 472.22012L477.4134 473.28262Q478.38214 472.06387 479.94464 472.06387Q482.61652 472.06387 482.64777 475.0795L482.64777 480.67325L481.19464 480.67325L481.19464 475.0795Q481.19464 474.15762 480.77277 473.72012Q480.36652 473.28262 479.50714 473.28262Q478.80402 473.28262 478.27277 473.65762Q477.74152 474.03262 477.44464 474.642L477.44464 480.67325L475.99152 480.67325L475.99152 472.22012L477.36652 472.22012ZM488.50714 480.8295Q486.7884 480.8295 485.71027 479.7045Q484.63214 478.56387 484.63214 476.67325L484.63214 476.40762Q484.63214 475.15762 485.1009 474.17325Q485.58527 473.17325 486.44464 472.62637Q487.31964 472.06387 488.31964 472.06387Q489.9759 472.06387 490.88214 473.15762Q491.80402 474.23575 491.80402 476.25137L491.80402 476.86075L486.06964 476.86075Q486.1009 478.11075 486.80402 478.87637Q487.50714 479.642 488.58527 479.642Q489.3509 479.642 489.88214 479.3295Q490.4134 479.017 490.80402 478.50137L491.69464 479.18887Q490.63214 480.8295 488.50714 480.8295ZM488.31964 473.25137Q487.44464 473.25137 486.8509 473.892Q486.25714 474.517 486.11652 475.67325L490.3509 475.67325L490.3509 475.56387Q490.2884 474.4545 489.75714 473.86075Q489.2259 473.25137 488.31964 473.25137ZM497.08527 473.517Q496.75714 473.4545 496.36652 473.4545Q494.94464 473.4545 494.44464 474.67325L494.44464 480.67325L492.99152 480.67325L492.99152 472.22012L494.39777 472.22012L494.42902 473.18887Q495.13214 472.06387 496.44464 472.06387Q496.86652 472.06387 497.08527 472.17325L497.08527 473.517ZM502.9134 478.42325Q502.9134 477.84512 502.4759 477.517Q502.0384 477.18887 500.92902 476.9545Q499.83527 476.72012 499.19464 476.392Q498.55402 476.06387 498.24152 475.61075Q497.92902 475.15762 497.92902 474.53262Q497.92902 473.50137 498.80402 472.78262Q499.69464 472.06387 501.05402 472.06387Q502.49152 472.06387 503.38214 472.81387Q504.2884 473.54825 504.2884 474.7045L502.83527 474.7045Q502.83527 474.11075 502.31964 473.68887Q501.81964 473.25137 501.05402 473.25137Q500.27277 473.25137 499.81964 473.59512Q499.38214 473.93887 499.38214 474.48575Q499.38214 475.017 499.7884 475.28262Q500.21027 475.54825 501.2884 475.79825Q502.36652 476.03262 503.0384 476.37637Q503.71027 476.7045 504.0384 477.17325Q504.36652 477.642 504.36652 478.3295Q504.36652 479.4545 503.46027 480.142Q502.55402 480.8295 501.1009 480.8295Q500.08527 480.8295 499.30402 480.47012Q498.52277 480.11075 498.08527 479.47012Q497.64777 478.81387 497.64777 478.06387L499.08527 478.06387Q499.13214 478.79825 499.6634 479.22012Q500.21027 479.642 501.1009 479.642Q501.92902 479.642 502.4134 479.31387Q502.9134 478.98575 502.9134 478.42325Z" fill-rule="nonzero"/><path fill="#38761d" d="M39.897762 498.17325C39.897762 501.48694 37.211468 504.17325 33.897762 504.17325C30.584053 504.17325 27.89776 501.48694 27.89776 498.17325C27.89776 494.85953 30.584053 492.17325 33.897762 492.17325C37.211468 492.17325 39.897762 494.85953 39.897762 498.17325Z" fill-rule="nonzero"/><path fill="#ffffff" d="M55.491512 498.642L50.725887 498.642L50.725887 503.67325L49.225887 503.67325L49.225887 492.29825L56.272762 492.29825L56.272762 493.53262L50.725887 493.53262L50.725887 497.42325L55.491512 497.42325L55.491512 498.642ZM57.616512 499.36075Q57.616512 498.12637 58.100887 497.142Q58.585262 496.142 59.460262 495.61075Q60.335262 495.06387 61.444637 495.06387Q63.179012 495.06387 64.241516 496.267Q65.304016 497.4545 65.304016 499.43887L65.304016 499.53262Q65.304016 500.767 64.835266 501.75137Q64.366516 502.73575 63.475887 503.28262Q62.600887 503.8295 61.460262 503.8295Q59.741512 503.8295 58.679012 502.642Q57.616512 501.43887 57.616512 499.47012L57.616512 499.36075ZM59.069637 499.53262Q59.069637 500.93887 59.710262 501.79825Q60.366512 502.642 61.460262 502.642Q62.569637 502.642 63.210262 501.78262Q63.866512 500.92325 63.866512 499.36075Q63.866512 497.97012 63.194637 497.11075Q62.538387 496.25137 61.444637 496.25137Q60.382137 496.25137 59.725887 497.11075Q59.069637 497.9545 59.069637 499.53262ZM72.210266 502.8295Q71.366516 503.8295 69.741516 503.8295Q68.38214 503.8295 67.679016 503.04825Q66.97589 502.25137 66.960266 500.72012L66.960266 495.22012L68.41339 495.22012L68.41339 500.67325Q68.41339 502.59512 69.97589 502.59512Q71.63214 502.59512 72.179016 501.36075L72.179016 495.22012L73.616516 495.22012L73.616516 503.67325L72.241516 503.67325L72.210266 502.8295ZM77.366516 495.22012L77.41339 496.28262Q78.38214 495.06387 79.94464 495.06387Q82.616516 495.06387 82.647766 498.0795L82.647766 503.67325L81.19464 503.67325L81.19464 498.0795Q81.19464 497.15762 80.772766 496.72012Q80.366516 496.28262 79.50714 496.28262Q78.804016 496.28262 78.272766 496.65762Q77.741516 497.03262 77.44464 497.642L77.44464 503.67325L75.991516 503.67325L75.991516 495.22012L77.366516 495.22012ZM84.647766 499.37637Q84.647766 497.42325 85.56964 496.25137Q86.491516 495.06387 87.97589 495.06387Q89.460266 495.06387 90.335266 496.0795L90.335266 491.67325L91.772766 491.67325L91.772766 503.67325L90.44464 503.67325L90.38214 502.767Q89.50714 503.8295 87.960266 503.8295Q86.491516 503.8295 85.56964 502.62637Q84.647766 501.42325 84.647766 499.48575L84.647766 499.37637ZM86.085266 499.53262Q86.085266 500.97012 86.679016 501.78262Q87.272766 502.59512 88.31964 502.59512Q89.69464 502.59512 90.335266 501.36075L90.335266 497.48575Q89.679016 496.28262 88.335266 496.28262Q87.272766 496.28262 86.679016 497.11075Q86.085266 497.92325 86.085266 499.53262ZM99.210266 503.67325Q99.085266 503.42325 99.00714 502.78262Q98.00714 503.8295 96.60089 503.8295Q95.35089 503.8295 94.554016 503.12637Q93.75714 502.40762 93.75714 501.3295Q93.75714 500.00137 94.75714 499.28262Q95.75714 498.54825 97.585266 498.54825L98.991516 498.54825L98.991516 497.87637Q98.991516 497.12637 98.53839 496.67325Q98.085266 496.22012 97.19464 496.22012Q96.429016 496.22012 95.897766 496.61075Q95.38214 497.00137 95.38214 497.56387L93.929016 497.56387Q93.929016 496.92325 94.366516 496.34512Q94.81964 495.75137 95.585266 495.40762Q96.366516 495.06387 97.28839 495.06387Q98.741516 495.06387 99.56964 495.79825Q100.397766 496.517 100.429016 497.79825L100.429016 501.68887Q100.429016 502.86075 100.72589 503.54825L100.72589 503.67325L99.210266 503.67325ZM96.81964 502.56387Q97.491516 502.56387 98.10089 502.22012Q98.710266 501.86075 98.991516 501.29825L98.991516 499.56387L97.85089 499.56387Q95.19464 499.56387 95.19464 501.12637Q95.19464 501.79825 95.647766 502.18887Q96.10089 502.56387 96.81964 502.56387ZM104.960266 493.17325L104.960266 495.22012L106.53839 495.22012L106.53839 496.3295L104.960266 496.3295L104.960266 501.5795Q104.960266 502.0795 105.16339 502.34512Q105.38214 502.59512 105.88214 502.59512Q106.13214 502.59512 106.56964 502.50137L106.56964 503.67325Q106.00714 503.8295 105.460266 503.8295Q104.491516 503.8295 103.991516 503.25137Q103.50714 502.65762 103.50714 501.5795L103.50714 496.3295L101.97589 496.3295L101.97589 495.22012L103.50714 495.22012L103.50714 493.17325L104.960266 493.17325ZM109.56964 503.67325L108.116516 503.67325L108.116516 495.22012L109.56964 495.22012L109.56964 503.67325ZM108.00714 492.97012Q108.00714 492.62637 108.210266 492.392Q108.429016 492.142 108.85089 492.142Q109.272766 492.142 109.491516 492.392Q109.710266 492.62637 109.710266 492.98575Q109.710266 493.3295 109.491516 493.56387Q109.272766 493.79825 108.85089 493.79825Q108.429016 493.79825 108.210266 493.56387Q108.00714 493.3295 108.00714 492.97012ZM111.616516 499.36075Q111.616516 498.12637 112.10089 497.142Q112.585266 496.142 113.460266 495.61075Q114.335266 495.06387 115.44464 495.06387Q117.179016 495.06387 118.241516 496.267Q119.304016 497.4545 119.304016 499.43887L119.304016 499.53262Q119.304016 500.767 118.835266 501.75137Q118.366516 502.73575 117.47589 503.28262Q116.60089 503.8295 115.460266 503.8295Q113.741516 503.8295 112.679016 502.642Q111.616516 501.43887 111.616516 499.47012L111.616516 499.36075ZM113.06964 499.53262Q113.06964 500.93887 113.710266 501.79825Q114.366516 502.642 115.460266 502.642Q116.56964 502.642 117.210266 501.78262Q117.866516 500.92325 117.866516 499.36075Q117.866516 497.97012 117.19464 497.11075Q116.53839 496.25137 115.44464 496.25137Q114.38214 496.25137 113.72589 497.11075Q113.06964 497.9545 113.06964 499.53262ZM122.366516 495.22012L122.41339 496.28262Q123.38214 495.06387 124.94464 495.06387Q127.616516 495.06387 127.647766 498.0795L127.647766 503.67325L126.19464 503.67325L126.19464 498.0795Q126.19464 497.15762 125.772766 496.72012Q125.366516 496.28262 124.50714 496.28262Q123.804016 496.28262 123.272766 496.65762Q122.741516 497.03262 122.44464 497.642L122.44464 503.67325L120.991516 503.67325L120.991516 495.22012L122.366516 495.22012Z" fill-rule="nonzero"/><path fill="#3d85c6" d="M156.89777 498.17325C156.89777 501.48694 154.21147 504.17325 150.89777 504.17325C147.58405 504.17325 144.89777 501.48694 144.89777 498.17325C144.89777 494.85953 147.58405 492.17325 150.89777 492.17325C154.21147 492.17325 156.89777 494.85953 156.89777 498.17325Z" fill-rule="nonzero"/><path fill="#ffffff" d="M172.64777 498.40762L167.72589 498.40762L167.72589 502.43887L173.44464 502.43887L173.44464 503.67325L166.22589 503.67325L166.22589 492.29825L173.36652 492.29825L173.36652 493.53262L167.72589 493.53262L167.72589 497.18887L172.64777 497.18887L172.64777 498.40762ZM178.38214 502.642Q179.16339 502.642 179.74152 502.17325Q180.31964 501.7045 180.38214 501.00137L181.74152 501.00137Q181.71027 501.73575 181.24152 502.392Q180.78839 503.04825 180.00714 503.43887Q179.24152 503.8295 178.38214 503.8295Q176.66339 503.8295 175.63214 502.67325Q174.61652 501.517 174.61652 499.517L174.61652 499.28262Q174.61652 498.04825 175.06964 497.09512Q175.52277 496.12637 176.36652 495.59512Q177.22589 495.06387 178.38214 495.06387Q179.80402 495.06387 180.74152 495.92325Q181.67902 496.767 181.74152 498.12637L180.38214 498.12637Q180.31964 497.29825 179.75714 496.78262Q179.19464 496.25137 178.38214 496.25137Q177.27277 496.25137 176.66339 497.04825Q176.06964 497.8295 176.06964 499.3295L176.06964 499.61075Q176.06964 501.06387 176.66339 501.86075Q177.27277 502.642 178.38214 502.642ZM182.61652 499.36075Q182.61652 498.12637 183.10089 497.142Q183.58527 496.142 184.46027 495.61075Q185.33527 495.06387 186.44464 495.06387Q188.17902 495.06387 189.24152 496.267Q190.30402 497.4545 190.30402 499.43887L190.30402 499.53262Q190.30402 500.767 189.83527 501.75137Q189.36652 502.73575 188.47589 503.28262Q187.60089 503.8295 186.46027 503.8295Q184.74152 503.8295 183.67902 502.642Q182.61652 501.43887 182.61652 499.47012L182.61652 499.36075ZM184.06964 499.53262Q184.06964 500.93887 184.71027 501.79825Q185.36652 502.642 186.46027 502.642Q187.56964 502.642 188.21027 501.78262Q188.86652 500.92325 188.86652 499.36075Q188.86652 497.97012 188.19464 497.11075Q187.53839 496.25137 186.44464 496.25137Q185.38214 496.25137 184.72589 497.11075Q184.06964 497.9545 184.06964 499.53262ZM196.91339 501.42325Q196.91339 500.84512 196.47589 500.517Q196.03839 500.18887 194.92902 499.9545Q193.83527 499.72012 193.19464 499.392Q192.55402 499.06387 192.24152 498.61075Q191.92902 498.15762 191.92902 497.53262Q191.92902 496.50137 192.80402 495.78262Q193.69464 495.06387 195.05402 495.06387Q196.49152 495.06387 197.38214 495.81387Q198.28839 496.54825 198.28839 497.7045L196.83527 497.7045Q196.83527 497.11075 196.31964 496.68887Q195.81964 496.25137 195.05402 496.25137Q194.27277 496.25137 193.81964 496.59512Q193.38214 496.93887 193.38214 497.48575Q193.38214 498.017 193.78839 498.28262Q194.21027 498.54825 195.28839 498.79825Q196.36652 499.03262 197.03839 499.37637Q197.71027 499.7045 198.03839 500.17325Q198.36652 500.642 198.36652 501.3295Q198.36652 502.4545 197.46027 503.142Q196.55402 503.8295 195.10089 503.8295Q194.08527 503.8295 193.30402 503.47012Q192.52277 503.11075 192.08527 502.47012Q191.64777 501.81387 191.64777 501.06387L193.08527 501.06387Q193.13214 501.79825 193.66339 502.22012Q194.21027 502.642 195.10089 502.642Q195.92902 502.642 196.41339 502.31387Q196.91339 501.98575 196.91339 501.42325ZM202.75714 501.54825L204.72589 495.22012L206.27277 495.22012L202.88214 504.98575Q202.08527 507.09512 200.36652 507.09512L200.10089 507.06387L199.55402 506.97012L199.55402 505.79825L199.94464 505.8295Q200.67902 505.8295 201.08527 505.53262Q201.50714 505.23575 201.77277 504.43887L202.08527 503.5795L199.06964 495.22012L200.64777 495.22012L202.75714 501.54825ZM212.91339 501.42325Q212.91339 500.84512 212.47589 500.517Q212.03839 500.18887 210.92902 499.9545Q209.83527 499.72012 209.19464 499.392Q208.55402 499.06387 208.24152 498.61075Q207.92902 498.15762 207.92902 497.53262Q207.92902 496.50137 208.80402 495.78262Q209.69464 495.06387 211.05402 495.06387Q212.49152 495.06387 213.38214 495.81387Q214.28839 496.54825 214.28839 497.7045L212.83527 497.7045Q212.83527 497.11075 212.31964 496.68887Q211.81964 496.25137 211.05402 496.25137Q210.27277 496.25137 209.81964 496.59512Q209.38214 496.93887 209.38214 497.48575Q209.38214 498.017 209.78839 498.28262Q210.21027 498.54825 211.28839 498.79825Q212.36652 499.03262 213.03839 499.37637Q213.71027 499.7045 214.03839 500.17325Q214.36652 500.642 214.36652 501.3295Q214.36652 502.4545 213.46027 503.142Q212.55402 503.8295 211.10089 503.8295Q210.08527 503.8295 209.30402 503.47012Q208.52277 503.11075 208.08527 502.47012Q207.64777 501.81387 207.64777 501.06387L209.08527 501.06387Q209.13214 501.79825 209.66339 502.22012Q210.21027 502.642 211.10089 502.642Q211.92902 502.642 212.41339 502.31387Q212.91339 501.98575 212.91339 501.42325ZM217.96027 493.17325L217.96027 495.22012L219.53839 495.22012L219.53839 496.3295L217.96027 496.3295L217.96027 501.5795Q217.96027 502.0795 218.16339 502.34512Q218.38214 502.59512 218.88214 502.59512Q219.13214 502.59512 219.56964 502.50137L219.56964 503.67325Q219.00714 503.8295 218.46027 503.8295Q217.49152 503.8295 216.99152 503.25137Q216.50714 502.65762 216.50714 501.5795L216.50714 496.3295L214.97589 496.3295L214.97589 495.22012L216.50714 495.22012L216.50714 493.17325L217.96027 493.17325ZM224.50714 503.8295Q222.78839 503.8295 221.71027 502.7045Q220.63214 501.56387 220.63214 499.67325L220.63214 499.40762Q220.63214 498.15762 221.10089 497.17325Q221.58527 496.17325 222.44464 495.62637Q223.31964 495.06387 224.31964 495.06387Q225.97589 495.06387 226.88214 496.15762Q227.80402 497.23575 227.80402 499.25137L227.80402 499.86075L222.06964 499.86075Q222.10089 501.11075 222.80402 501.87637Q223.50714 502.642 224.58527 502.642Q225.35089 502.642 225.88214 502.3295Q226.41339 502.017 226.80402 501.50137L227.69464 502.18887Q226.63214 503.8295 224.50714 503.8295ZM224.31964 496.25137Q223.44464 496.25137 222.85089 496.892Q222.25714 497.517 222.11652 498.67325L226.35089 498.67325L226.35089 498.56387Q226.28839 497.4545 225.75714 496.86075Q225.22589 496.25137 224.31964 496.25137ZM230.35089 495.22012L230.39777 496.15762Q231.31964 495.06387 232.89777 495.06387Q234.67902 495.06387 235.31964 496.42325Q235.74152 495.81387 236.41339 495.43887Q237.08527 495.06387 238.00714 495.06387Q240.78839 495.06387 240.83527 498.00137L240.83527 503.67325L239.39777 503.67325L239.39777 498.09512Q239.39777 497.18887 238.97589 496.73575Q238.56964 496.28262 237.58527 496.28262Q236.78839 496.28262 236.25714 496.767Q235.72589 497.25137 235.63214 498.06387L235.63214 503.67325L234.17902 503.67325L234.17902 498.12637Q234.17902 496.28262 232.38214 496.28262Q230.96027 496.28262 230.42902 497.50137L230.42902 503.67325L228.99152 503.67325L228.99152 495.22012L230.35089 495.22012ZM253.49152 498.642L248.72589 498.642L248.72589 503.67325L247.22589 503.67325L247.22589 492.29825L254.27277 492.29825L254.27277 493.53262L248.72589 493.53262L248.72589 497.42325L253.49152 497.42325L253.49152 498.642ZM261.21027 502.8295Q260.36652 503.8295 258.74152 503.8295Q257.38214 503.8295 256.67902 503.04825Q255.97589 502.25137 255.96027 500.72012L255.96027 495.22012L257.4134 495.22012L257.4134 500.67325Q257.4134 502.59512 258.9759 502.59512Q260.63214 502.59512 261.17902 501.36075L261.17902 495.22012L262.61652 495.22012L262.61652 503.67325L261.24152 503.67325L261.21027 502.8295ZM266.36652 495.22012L266.4134 496.28262Q267.38214 495.06387 268.94464 495.06387Q271.61652 495.06387 271.64777 498.0795L271.64777 503.67325L270.19464 503.67325L270.19464 498.0795Q270.19464 497.15762 269.77277 496.72012Q269.36652 496.28262 268.50714 496.28262Q267.80402 496.28262 267.27277 496.65762Q266.74152 497.03262 266.44464 497.642L266.44464 503.67325L264.99152 503.67325L264.99152 495.22012L266.36652 495.22012ZM273.64777 499.37637Q273.64777 497.42325 274.56964 496.25137Q275.49152 495.06387 276.9759 495.06387Q278.46027 495.06387 279.33527 496.0795L279.33527 491.67325L280.77277 491.67325L280.77277 503.67325L279.44464 503.67325L279.38214 502.767Q278.50714 503.8295 276.96027 503.8295Q275.49152 503.8295 274.56964 502.62637Q273.64777 501.42325 273.64777 499.48575L273.64777 499.37637ZM275.08527 499.53262Q275.08527 500.97012 275.67902 501.78262Q276.27277 502.59512 277.31964 502.59512Q278.69464 502.59512 279.33527 501.36075L279.33527 497.48575Q278.67902 496.28262 277.33527 496.28262Q276.27277 496.28262 275.67902 497.11075Q275.08527 497.92325 275.08527 499.53262Z" fill-rule="nonzero"/><path fill="#674ea7" d="M309.89777 498.17325C309.89777 501.48694 307.21146 504.17325 303.89777 504.17325C300.58405 504.17325 297.89777 501.48694 297.89777 498.17325C297.89777 494.85953 300.58405 492.17325 303.89777 492.17325C307.21146 492.17325 309.89777 494.85953 309.89777 498.17325Z" fill-rule="nonzero"/><path fill="#ffffff" d="M320.7259 502.43887L326.11652 502.43887L326.11652 503.67325L319.2259 503.67325L319.2259 492.29825L320.7259 492.29825L320.7259 502.43887ZM329.56964 503.67325L328.11652 503.67325L328.11652 495.22012L329.56964 495.22012L329.56964 503.67325ZM328.00714 492.97012Q328.00714 492.62637 328.21027 492.392Q328.42902 492.142 328.8509 492.142Q329.27277 492.142 329.49152 492.392Q329.71027 492.62637 329.71027 492.98575Q329.71027 493.3295 329.49152 493.56387Q329.27277 493.79825 328.8509 493.79825Q328.42902 493.79825 328.21027 493.56387Q328.00714 493.3295 328.00714 492.97012ZM331.64777 499.37637Q331.64777 497.37637 332.55402 496.22012Q333.4759 495.06387 335.00714 495.06387Q336.50714 495.06387 337.38214 496.06387L337.44464 495.22012L338.77277 495.22012L338.77277 506.92325L337.31964 506.92325L337.31964 502.892Q336.44464 503.8295 334.99152 503.8295Q333.46027 503.8295 332.55402 502.642Q331.64777 501.43887 331.64777 499.47012L331.64777 499.37637ZM333.08527 499.53262Q333.08527 500.98575 333.69464 501.81387Q334.31964 502.642 335.3509 502.642Q336.64777 502.642 337.31964 501.50137L337.31964 497.36075Q336.63214 496.25137 335.36652 496.25137Q334.31964 496.25137 333.69464 497.0795Q333.08527 497.90762 333.08527 499.53262ZM346.21027 502.8295Q345.36652 503.8295 343.74152 503.8295Q342.38214 503.8295 341.67902 503.04825Q340.9759 502.25137 340.96027 500.72012L340.96027 495.22012L342.4134 495.22012L342.4134 500.67325Q342.4134 502.59512 343.9759 502.59512Q345.63214 502.59512 346.17902 501.36075L346.17902 495.22012L347.61652 495.22012L347.61652 503.67325L346.24152 503.67325L346.21027 502.8295ZM351.56964 503.67325L350.11652 503.67325L350.11652 495.22012L351.56964 495.22012L351.56964 503.67325ZM350.00714 492.97012Q350.00714 492.62637 350.21027 492.392Q350.42902 492.142 350.8509 492.142Q351.27277 492.142 351.49152 492.392Q351.71027 492.62637 351.71027 492.98575Q351.71027 493.3295 351.49152 493.56387Q351.27277 493.79825 350.8509 493.79825Q350.42902 493.79825 350.21027 493.56387Q350.00714 493.3295 350.00714 492.97012ZM353.64777 499.37637Q353.64777 497.42325 354.56964 496.25137Q355.49152 495.06387 356.9759 495.06387Q358.46027 495.06387 359.33527 496.0795L359.33527 491.67325L360.77277 491.67325L360.77277 503.67325L359.44464 503.67325L359.38214 502.767Q358.50714 503.8295 356.96027 503.8295Q355.49152 503.8295 354.56964 502.62637Q353.64777 501.42325 353.64777 499.48575L353.64777 499.37637ZM355.08527 499.53262Q355.08527 500.97012 355.67902 501.78262Q356.27277 502.59512 357.31964 502.59512Q358.69464 502.59512 359.33527 501.36075L359.33527 497.48575Q358.67902 496.28262 357.33527 496.28262Q356.27277 496.28262 355.67902 497.11075Q355.08527 497.92325 355.08527 499.53262ZM364.56964 503.67325L363.11652 503.67325L363.11652 495.22012L364.56964 495.22012L364.56964 503.67325ZM363.00714 492.97012Q363.00714 492.62637 363.21027 492.392Q363.42902 492.142 363.8509 492.142Q364.27277 492.142 364.49152 492.392Q364.71027 492.62637 364.71027 492.98575Q364.71027 493.3295 364.49152 493.56387Q364.27277 493.79825 363.8509 493.79825Q363.42902 493.79825 363.21027 493.56387Q363.00714 493.3295 363.00714 492.97012ZM368.96027 493.17325L368.96027 495.22012L370.5384 495.22012L370.5384 496.3295L368.96027 496.3295L368.96027 501.5795Q368.96027 502.0795 369.1634 502.34512Q369.38214 502.59512 369.88214 502.59512Q370.13214 502.59512 370.56964 502.50137L370.56964 503.67325Q370.00714 503.8295 369.46027 503.8295Q368.49152 503.8295 367.99152 503.25137Q367.50714 502.65762 367.50714 501.5795L367.50714 496.3295L365.9759 496.3295L365.9759 495.22012L367.50714 495.22012L367.50714 493.17325L368.96027 493.17325ZM374.75714 501.54825L376.7259 495.22012L378.27277 495.22012L374.88214 504.98575Q374.08527 507.09512 372.36652 507.09512L372.1009 507.06387L371.55402 506.97012L371.55402 505.79825L371.94464 505.8295Q372.67902 505.8295 373.08527 505.53262Q373.50714 505.23575 373.77277 504.43887L374.08527 503.5795L371.06964 495.22012L372.64777 495.22012L374.75714 501.54825Z" fill-rule="nonzero"/><path fill="#741b47" d="M406.89777 498.17325C406.89777 501.48694 404.21146 504.17325 400.89777 504.17325C397.58405 504.17325 394.89777 501.48694 394.89777 498.17325C394.89777 494.85953 397.58405 492.17325 400.89777 492.17325C404.21146 492.17325 406.89777 494.85953 406.89777 498.17325Z" fill-rule="nonzero"/><path fill="#ffffff" d="M419.99152 501.67325L423.24152 492.29825L424.88214 492.29825L420.6634 503.67325L419.33527 503.67325L415.11652 492.29825L416.75714 492.29825L419.99152 501.67325ZM434.58527 500.06387Q434.38214 501.86075 433.25714 502.84512Q432.13214 503.8295 430.27277 503.8295Q428.25714 503.8295 427.0384 502.392Q425.83527 500.93887 425.83527 498.517L425.83527 497.42325Q425.83527 495.8295 426.39777 494.62637Q426.96027 493.42325 427.99152 492.78262Q429.0384 492.142 430.4134 492.142Q432.2259 492.142 433.31964 493.15762Q434.4134 494.15762 434.58527 495.9545L433.08527 495.9545Q432.88214 494.59512 432.2259 493.98575Q431.58527 493.37637 430.4134 493.37637Q428.9759 493.37637 428.14777 494.43887Q427.33527 495.50137 427.33527 497.4545L427.33527 498.56387Q427.33527 500.40762 428.1009 501.50137Q428.88214 502.59512 430.27277 502.59512Q431.52277 502.59512 432.19464 502.03262Q432.86652 501.47012 433.08527 500.06387L434.58527 500.06387ZM446.50714 500.7045L441.74152 500.7045L440.6634 503.67325L439.11652 503.67325L443.46027 492.29825L444.77277 492.29825L449.13214 503.67325L447.58527 503.67325L446.50714 500.7045ZM442.19464 499.47012L446.05402 499.47012L444.11652 494.142L442.19464 499.47012ZM451.56964 503.67325L450.11652 503.67325L450.11652 491.67325L451.56964 491.67325L451.56964 503.67325ZM455.56964 503.67325L454.11652 503.67325L454.11652 491.67325L455.56964 491.67325L455.56964 503.67325ZM457.61652 499.36075Q457.61652 498.12637 458.1009 497.142Q458.58527 496.142 459.46027 495.61075Q460.33527 495.06387 461.44464 495.06387Q463.17902 495.06387 464.24152 496.267Q465.30402 497.4545 465.30402 499.43887L465.30402 499.53262Q465.30402 500.767 464.83527 501.75137Q464.36652 502.73575 463.4759 503.28262Q462.6009 503.8295 461.46027 503.8295Q459.74152 503.8295 458.67902 502.642Q457.61652 501.43887 457.61652 499.47012L457.61652 499.36075ZM459.06964 499.53262Q459.06964 500.93887 459.71027 501.79825Q460.36652 502.642 461.46027 502.642Q462.56964 502.642 463.21027 501.78262Q463.86652 500.92325 463.86652 499.36075Q463.86652 497.97012 463.19464 497.11075Q462.5384 496.25137 461.44464 496.25137Q460.38214 496.25137 459.7259 497.11075Q459.06964 497.9545 459.06964 499.53262ZM470.38214 502.642Q471.1634 502.642 471.74152 502.17325Q472.31964 501.7045 472.38214 501.00137L473.74152 501.00137Q473.71027 501.73575 473.24152 502.392Q472.7884 503.04825 472.00714 503.43887Q471.24152 503.8295 470.38214 503.8295Q468.6634 503.8295 467.63214 502.67325Q466.61652 501.517 466.61652 499.517L466.61652 499.28262Q466.61652 498.04825 467.06964 497.09512Q467.52277 496.12637 468.36652 495.59512Q469.2259 495.06387 470.38214 495.06387Q471.80402 495.06387 472.74152 495.92325Q473.67902 496.767 473.74152 498.12637L472.38214 498.12637Q472.31964 497.29825 471.75714 496.78262Q471.19464 496.25137 470.38214 496.25137Q469.27277 496.25137 468.6634 497.04825Q468.06964 497.8295 468.06964 499.3295L468.06964 499.61075Q468.06964 501.06387 468.6634 501.86075Q469.27277 502.642 470.38214 502.642ZM480.21027 503.67325Q480.08527 503.42325 480.00714 502.78262Q479.00714 503.8295 477.6009 503.8295Q476.3509 503.8295 475.55402 503.12637Q474.75714 502.40762 474.75714 501.3295Q474.75714 500.00137 475.75714 499.28262Q476.75714 498.54825 478.58527 498.54825L479.99152 498.54825L479.99152 497.87637Q479.99152 497.12637 479.5384 496.67325Q479.08527 496.22012 478.19464 496.22012Q477.42902 496.22012 476.89777 496.61075Q476.38214 497.00137 476.38214 497.56387L474.92902 497.56387Q474.92902 496.92325 475.36652 496.34512Q475.81964 495.75137 476.58527 495.40762Q477.36652 495.06387 478.2884 495.06387Q479.74152 495.06387 480.56964 495.79825Q481.39777 496.517 481.42902 497.79825L481.42902 501.68887Q481.42902 502.86075 481.7259 503.54825L481.7259 503.67325L480.21027 503.67325ZM477.81964 502.56387Q478.49152 502.56387 479.1009 502.22012Q479.71027 501.86075 479.99152 501.29825L479.99152 499.56387L478.8509 499.56387Q476.19464 499.56387 476.19464 501.12637Q476.19464 501.79825 476.64777 502.18887Q477.1009 502.56387 477.81964 502.56387ZM485.96027 493.17325L485.96027 495.22012L487.5384 495.22012L487.5384 496.3295L485.96027 496.3295L485.96027 501.5795Q485.96027 502.0795 486.1634 502.34512Q486.38214 502.59512 486.88214 502.59512Q487.13214 502.59512 487.56964 502.50137L487.56964 503.67325Q487.00714 503.8295 486.46027 503.8295Q485.49152 503.8295 484.99152 503.25137Q484.50714 502.65762 484.50714 501.5795L484.50714 496.3295L482.9759 496.3295L482.9759 495.22012L484.50714 495.22012L484.50714 493.17325L485.96027 493.17325ZM490.56964 503.67325L489.11652 503.67325L489.11652 495.22012L490.56964 495.22012L490.56964 503.67325ZM489.00714 492.97012Q489.00714 492.62637 489.21027 492.392Q489.42902 492.142 489.8509 492.142Q490.27277 492.142 490.49152 492.392Q490.71027 492.62637 490.71027 492.98575Q490.71027 493.3295 490.49152 493.56387Q490.27277 493.79825 489.8509 493.79825Q489.42902 493.79825 489.21027 493.56387Q489.00714 493.3295 489.00714 492.97012ZM492.61652 499.36075Q492.61652 498.12637 493.1009 497.142Q493.58527 496.142 494.46027 495.61075Q495.33527 495.06387 496.44464 495.06387Q498.17902 495.06387 499.24152 496.267Q500.30402 497.4545 500.30402 499.43887L500.30402 499.53262Q500.30402 500.767 499.83527 501.75137Q499.36652 502.73575 498.4759 503.28262Q497.6009 503.8295 496.46027 503.8295Q494.74152 503.8295 493.67902 502.642Q492.61652 501.43887 492.61652 499.47012L492.61652 499.36075ZM494.06964 499.53262Q494.06964 500.93887 494.71027 501.79825Q495.36652 502.642 496.46027 502.642Q497.56964 502.642 498.21027 501.78262Q498.86652 500.92325 498.86652 499.36075Q498.86652 497.97012 498.19464 497.11075Q497.5384 496.25137 496.44464 496.25137Q495.38214 496.25137 494.7259 497.11075Q494.06964 497.9545 494.06964 499.53262ZM503.36652 495.22012L503.4134 496.28262Q504.38214 495.06387 505.94464 495.06387Q508.61652 495.06387 508.64777 498.0795L508.64777 503.67325L507.19464 503.67325L507.19464 498.0795Q507.19464 497.15762 506.77277 496.72012Q506.36652 496.28262 505.50714 496.28262Q504.80402 496.28262 504.27277 496.65762Q503.74152 497.03262 503.44464 497.642L503.44464 503.67325L501.99152 503.67325L501.99152 495.22012L503.36652 495.22012Z" fill-rule="nonzero"/><path fill="#ffd34d" d="M250.39777 521.1732C250.39777 524.48694 247.71147 527.1732 244.39777 527.1732C241.08405 527.1732 238.39777 524.48694 238.39777 521.1732C238.39777 517.85956 241.08405 515.1732 244.39777 515.1732C247.71147 515.1732 250.39777 517.85956 250.39777 521.1732Z" fill-rule="nonzero"/><path fill="#ffffff" d="M267.58527 516.5326L263.92902 516.5326L263.92902 526.6732L262.42902 526.6732L262.42902 516.5326L258.7884 516.5326L258.7884 515.2982L267.58527 515.2982L267.58527 516.5326ZM273.00714 526.82947Q271.2884 526.82947 270.21027 525.70447Q269.13214 524.56384 269.13214 522.6732L269.13214 522.4076Q269.13214 521.1576 269.6009 520.1732Q270.08527 519.1732 270.94464 518.62634Q271.81964 518.06384 272.81964 518.06384Q274.4759 518.06384 275.38214 519.1576Q276.30402 520.2357 276.30402 522.25134L276.30402 522.8607L270.56964 522.8607Q270.6009 524.1107 271.30402 524.87634Q272.00714 525.64197 273.08527 525.64197Q273.8509 525.64197 274.38214 525.32947Q274.9134 525.01697 275.30402 524.50134L276.19464 525.18884Q275.13214 526.82947 273.00714 526.82947ZM272.81964 519.25134Q271.94464 519.25134 271.3509 519.89197Q270.75714 520.51697 270.61652 521.6732L274.8509 521.6732L274.8509 521.56384Q274.7884 520.45447 274.25714 519.8607Q273.7259 519.25134 272.81964 519.25134ZM282.71027 526.6732Q282.58527 526.4232 282.50714 525.7826Q281.50714 526.82947 280.1009 526.82947Q278.8509 526.82947 278.05402 526.12634Q277.25714 525.4076 277.25714 524.32947Q277.25714 523.00134 278.25714 522.2826Q279.25714 521.5482 281.08527 521.5482L282.49152 521.5482L282.49152 520.87634Q282.49152 520.12634 282.0384 519.6732Q281.58527 519.2201 280.69464 519.2201Q279.92902 519.2201 279.39777 519.6107Q278.88214 520.00134 278.88214 520.56384L277.42902 520.56384Q277.42902 519.9232 277.86652 519.3451Q278.31964 518.75134 279.08527 518.4076Q279.86652 518.06384 280.7884 518.06384Q282.24152 518.06384 283.06964 518.7982Q283.89777 519.51697 283.92902 520.7982L283.92902 524.68884Q283.92902 525.8607 284.2259 526.5482L284.2259 526.6732L282.71027 526.6732ZM280.31964 525.56384Q280.99152 525.56384 281.6009 525.2201Q282.21027 524.8607 282.49152 524.2982L282.49152 522.56384L281.3509 522.56384Q278.69464 522.56384 278.69464 524.12634Q278.69464 524.7982 279.14777 525.18884Q279.6009 525.56384 280.31964 525.56384ZM287.8509 518.2201L287.89777 519.1576Q288.81964 518.06384 290.39777 518.06384Q292.17902 518.06384 292.81964 519.4232Q293.24152 518.81384 293.9134 518.43884Q294.58527 518.06384 295.50714 518.06384Q298.2884 518.06384 298.33527 521.00134L298.33527 526.6732L296.89777 526.6732L296.89777 521.0951Q296.89777 520.18884 296.4759 519.7357Q296.06964 519.2826 295.08527 519.2826Q294.2884 519.2826 293.75714 519.76697Q293.2259 520.25134 293.13214 521.06384L293.13214 526.6732L291.67902 526.6732L291.67902 521.12634Q291.67902 519.2826 289.88214 519.2826Q288.46027 519.2826 287.92902 520.50134L287.92902 526.6732L286.49152 526.6732L286.49152 518.2201L287.8509 518.2201Z" fill-rule="nonzero"/></svg>