<?xml version="1.0" encoding="UTF-8" standalone="no"?>
<svg
   xmlns:dc="http://purl.org/dc/elements/1.1/"
   xmlns:cc="http://creativecommons.org/ns#"
   xmlns:rdf="http://www.w3.org/1999/02/22-rdf-syntax-ns#"
   xmlns:svg="http://www.w3.org/2000/svg"
   xmlns="http://www.w3.org/2000/svg"
   xmlns:sodipodi="http://sodipodi.sourceforge.net/DTD/sodipodi-0.dtd"
   xmlns:inkscape="http://www.inkscape.org/namespaces/inkscape"
   id="svg8"
   version="1.1"
   viewBox="0 0 210 58"
   height="58mm"
   width="210mm"
   sodipodi:docname="unigrid-wide.svg"
   inkscape:version="0.92.4 (5da689c313, 2019-01-14)">
  <sodipodi:namedview
     pagecolor="#ffffff"
     bordercolor="#666666"
     borderopacity="1"
     objecttolerance="10"
     gridtolerance="10"
     guidetolerance="10"
     inkscape:pageopacity="0"
     inkscape:pageshadow="2"
     inkscape:window-width="1402"
     inkscape:window-height="930"
     id="namedview35"
     showgrid="false"
     inkscape:zoom="0.50246671"
     inkscape:cx="619.8575"
     inkscape:cy="117.87274"
     inkscape:window-x="1160"
     inkscape:window-y="338"
     inkscape:window-maximized="0"
     inkscape:current-layer="svg8" />
  <defs
     id="defs2" />
  <metadata
     id="metadata5">
    <rdf:RDF>
      <cc:Work
         rdf:about="">
        <dc:format>image/svg+xml</dc:format>
        <dc:type
           rdf:resource="http://purl.org/dc/dcmitype/StillImage" />
        <dc:title />
      </cc:Work>
    </rdf:RDF>
  </metadata>
  <g
     transform="matrix(1.0766369,0,0,1.0766369,31.127561,-241.18156)"
     id="layer1">
    <path
       inkscape:connector-curvature="0"
       id="path828"
       d="m -8.3021889,269.0744 c -3.5372961,0.10139 -6.2501661,-4.01173 -4.8783001,-7.24864 0.850809,-2.31133 3.3823751,-3.72985 5.7954851,-3.51878 2.62782,-0.0951 5.345516,-1.87547 5.744062,-4.61388 0.37152,-2.09046 0.01378,-4.55472 1.67992399,-6.18183 2.14385201,-2.49523 6.61749101,-2.25693 8.37777401,0.56901 1.023919,1.29389 0.973318,2.9632 1.111843,4.50978 0.290145,2.28094 1.8206299,4.54956 4.2030249,4.97512 2.237899,0.54033 4.975429,0.11058 6.670548,1.99623 2.417101,2.34609 1.812576,6.9778 -1.300771,8.43183 -2.48144,1.36804 -6.007489,0.47401 -7.24826,-2.15923 -1.072962,-2.24915 -0.361215,-5.0699 -2.0316269,-7.09179 -1.850634,-2.25664 -5.062051,-2.42495 -7.73307,-1.95982 -2.34947801,0.27424 -4.303008,2.2227 -4.63932,4.55407 -0.421347,1.99114 -0.006,4.3379 -1.565619,5.92231 -1.049322,1.16248 -2.614324,1.86549 -4.185694,1.81562 z"
       style="fill:#fe7416;stroke-width:0.14225328" />
    <path
       inkscape:connector-curvature="0"
       id="path828-6"
       d="m -8.3003219,233.30862 c -3.5372981,-0.10139 -6.2501681,4.01173 -4.8783021,7.24863 0.850811,2.31133 3.3823741,3.72986 5.7954851,3.5188 2.627819,0.0951 5.345515,1.87548 5.74406,4.61386 0.371522,2.09049 0.01378,4.55475 1.67992599,6.18187 2.14385301,2.4952 6.61749101,2.25691 8.37777501,-0.56904 1.023916,-1.29389 0.973314,-2.96319 1.11184,-4.50977 0.290147,-2.28095 1.8206289,-4.54957 4.2030169,-4.97514 2.237909,-0.54031 4.975439,-0.11058 6.670558,-1.9962 2.417099,-2.34611 1.812573,-6.97783 -1.300771,-8.43182 -2.481447,-1.36805 -6.007488,-0.47404 -7.24826,2.15919 -1.072965,2.24916 -0.361212,5.0699 -2.0316269,7.09181 -1.850633,2.25663 -5.06205,2.42494 -7.733069,1.9598 -2.34948201,-0.27423 -4.303011,-2.22269 -4.639323,-4.55405 -0.421347,-1.99115 -0.006,-4.33791 -1.565617,-5.92231 -1.049324,-1.16248 -2.614325,-1.8655 -4.185692,-1.81563 z"
       style="fill:#fe7416;fill-opacity:0.67708333;stroke-width:0.14225328" />
    <path
       inkscape:connector-curvature="0"
       id="path828-6-7"
       d="m -2.8395699,238.54124 c 0.101345,-3.5373 -4.011726,-6.25017 -7.2486291,-4.87832 -2.311329,0.85084 -3.604072,3.34047 -3.518794,5.79552 -0.09502,2.62781 -1.875476,5.34552 -4.613859,5.74405 -2.090486,0.37154 -4.554731,0.0143 -6.181846,1.67991 -2.49522,2.14387 -2.256925,6.61752 0.569022,8.3778 1.293887,1.02392 2.963186,0.97332 4.509768,1.11185 2.280941,0.29014 4.549566,1.82062 4.975122,4.20303 0.54033,2.2379 0.529868,4.84964 2.415512,6.54476 2.3460951,2.4171 6.5585191,1.93838 8.0125191,-1.17499 1.368056,-2.48144 0.474036,-6.00748 -2.159205,-7.24826 -2.312042,-0.94717 -5.0698971,-0.36122 -7.0917901,-2.03163 -2.256647,-1.85063 -2.42495,-5.06206 -1.959822,-7.73308 0.27424,-2.34947 2.075957,-4.42881 4.407317,-4.7651 2.4104301,-0.21172 4.4846521,0.11977 6.0690541,-1.43984 1.162475,-1.04932 1.865508,-2.61433 1.815631,-4.1857 z"
       style="fill:#fe7416;fill-opacity:0.25520833;stroke-width:0.14225328" />
    <g
       transform="translate(-10.999056,-86.849088)"
       id="text932"
       style="font-style:normal;font-variant:normal;font-weight:normal;font-stretch:normal;font-size:26.34367943px;line-height:125%;font-family:'Times New Roman';-inkscape-font-specification:'Times New Roman';letter-spacing:0px;word-spacing:0px;fill:#d7d7d7;fill-opacity:1;stroke:none;stroke-width:0.18294217px;stroke-linecap:butt;stroke-linejoin:miter;stroke-opacity:1"
       aria-label="UNIGRID">
      <path
         inkscape:connector-curvature="0"
         id="path885"
         style="font-style:normal;font-variant:normal;font-weight:normal;font-stretch:normal;line-height:125%;font-family:Orbitron;-inkscape-font-specification:Orbitron;letter-spacing:1.21292031px;word-spacing:0px;fill:#d7d7d7;fill-opacity:1;stroke-width:0.18294217px"
         d="m 65.509683,336.97475 v -15.80621 h 2.133838 v 15.80621 q 0,1.31718 -0.922029,2.23921 -0.922028,0.92203 -2.239212,0.92203 H 51.837314 q -1.317184,0 -2.239213,-0.92203 -0.922029,-0.92203 -0.922029,-2.23921 v -15.80621 h 2.133838 v 15.80621 q 0,0.4215 0.289781,0.73762 0.316124,0.28978 0.737623,0.28978 H 64.48228 q 0.421499,0 0.711279,-0.28978 0.316124,-0.31612 0.316124,-0.73762 z" />
      <path
         inkscape:connector-curvature="0"
         id="path887"
         style="font-style:normal;font-variant:normal;font-weight:normal;font-stretch:normal;line-height:125%;font-family:Orbitron;-inkscape-font-specification:Orbitron;letter-spacing:1.21292031px;word-spacing:0px;fill:#d7d7d7;fill-opacity:1;stroke-width:0.18294217px"
         d="m 88.591151,337.71237 v -16.54383 h 2.133838 v 18.96745 H 87.80084 L 73.891377,323.59216 v 16.54383 h -2.133838 v -18.96745 h 2.924149 z" />
      <path
         inkscape:connector-curvature="0"
         id="path889"
         style="font-style:normal;font-variant:normal;font-weight:normal;font-stretch:normal;line-height:125%;font-family:Orbitron;-inkscape-font-specification:Orbitron;letter-spacing:1.21292031px;word-spacing:0px;fill:#d7d7d7;fill-opacity:1;stroke-width:0.18294217px"
         d="m 94.915568,340.13599 v -18.96745 h 2.133838 v 18.96745 z" />
      <path
         inkscape:connector-curvature="0"
         id="path891"
         style="font-style:normal;font-variant:normal;font-weight:normal;font-stretch:normal;line-height:125%;font-family:Orbitron;-inkscape-font-specification:Orbitron;letter-spacing:1.21292031px;word-spacing:0px;fill:#d7d7d7;fill-opacity:1;stroke-width:0.18294217px"
         d="m 120.88372,324.32978 v 0.76397 h -2.13383 v -0.76397 q 0,-0.4215 -0.31613,-0.71128 -0.28978,-0.31612 -0.71128,-0.31612 h -12.64496 q -0.4215,0 -0.73763,0.31612 -0.28978,0.28978 -0.28978,0.71128 v 12.64497 q 0,0.4215 0.28978,0.73762 0.31613,0.28978 0.73763,0.28978 h 12.64496 q 0.4215,0 0.71128,-0.28978 0.31613,-0.31612 0.31613,-0.73762 v -4.68918 h -4.68918 v -2.16018 h 6.82301 v 6.84936 q 0,1.31718 -0.92202,2.23921 -0.92203,0.92203 -2.23922,0.92203 h -12.64496 q -1.31719,0 -2.23922,-0.92203 -0.92203,-0.92203 -0.92203,-2.23921 v -12.64497 q 0,-1.31718 0.92203,-2.23921 0.92203,-0.92203 2.23922,-0.92203 h 12.64496 q 1.31719,0 2.23922,0.92203 0.92202,0.92203 0.92202,2.23921 z" />
      <path
         inkscape:connector-curvature="0"
         id="path893"
         style="font-style:normal;font-variant:normal;font-weight:normal;font-stretch:normal;line-height:125%;font-family:Orbitron;-inkscape-font-specification:Orbitron;letter-spacing:1.21292031px;word-spacing:0px;fill:#d7d7d7;fill-opacity:1;stroke-width:0.18294217px"
         d="m 143.93761,324.35612 v 5.55852 q 0,1.31718 -0.92203,2.23921 -0.92203,0.92203 -2.23921,0.92203 h -2.89781 l 5.95368,7.06011 h -2.81878 l -5.92733,-7.06011 h -6.95473 q -0.23709,0 -1.0274,-0.10537 v 7.16548 h -2.13384 v -18.94111 h 15.80621 q 1.31718,0 2.23921,0.92203 0.92203,0.92203 0.92203,2.23921 z m -15.80621,6.55958 h 12.64497 q 0.4215,0 0.71128,-0.28978 0.28978,-0.28978 0.28978,-0.71128 v -5.55852 q 0,-0.42149 -0.28978,-0.71128 -0.28978,-0.31612 -0.71128,-0.31612 H 128.1314 q -0.4215,0 -0.73762,0.31612 -0.28978,0.28979 -0.28978,0.71128 v 5.55852 q 0,0.4215 0.28978,0.71128 0.31612,0.28978 0.73762,0.28978 z" />
      <path
         inkscape:connector-curvature="0"
         id="path895"
         style="font-style:normal;font-variant:normal;font-weight:normal;font-stretch:normal;line-height:125%;font-family:Orbitron;-inkscape-font-specification:Orbitron;letter-spacing:1.21292031px;word-spacing:0px;fill:#d7d7d7;fill-opacity:1;stroke-width:0.18294217px"
         d="m 147.94873,340.13599 v -18.96745 h 2.13384 v 18.96745 z" />
      <path
         inkscape:connector-curvature="0"
         id="path897"
         style="font-style:normal;font-variant:normal;font-weight:normal;font-stretch:normal;line-height:125%;font-family:Orbitron;-inkscape-font-specification:Orbitron;letter-spacing:1.21292031px;word-spacing:0px;fill:#d7d7d7;fill-opacity:1;stroke-width:0.18294217px"
         d="m 155.00212,321.16854 h 15.80621 q 1.31718,0 2.23921,0.92203 0.92203,0.92203 0.92203,2.23921 v 12.64497 q 0,1.31718 -0.92203,2.23921 -0.92203,0.92203 -2.23921,0.92203 h -15.80621 z m 16.83361,15.80621 v -12.64497 q 0,-0.4215 -0.31612,-0.71128 -0.28978,-0.31612 -0.71128,-0.31612 h -12.64497 q -0.4215,0 -0.73762,0.31612 -0.28978,0.28978 -0.28978,0.71128 v 12.64497 q 0,0.4215 0.28978,0.73762 0.31612,0.28978 0.73762,0.28978 h 12.64497 q 0.4215,0 0.71128,-0.28978 0.31612,-0.31612 0.31612,-0.73762 z" />
    </g>
    <g
       transform="translate(-10.999056,-86.849088)"
       id="text824"
       style="font-style:normal;font-variant:normal;font-weight:normal;font-stretch:normal;font-size:11.95151711px;line-height:125%;font-family:'Times New Roman';-inkscape-font-specification:'Times New Roman';letter-spacing:0px;word-spacing:0px;fill:#fe7416;fill-opacity:1;stroke:none;stroke-width:0.08299665px;stroke-linecap:butt;stroke-linejoin:miter;stroke-opacity:1"
       aria-label="SHARDED  INTERNET">
      <path
         inkscape:connector-curvature="0"
         id="path854"
         style="font-style:normal;font-variant:normal;font-weight:normal;font-stretch:normal;font-family:Changa;-inkscape-font-specification:Changa;letter-spacing:1.51129019px;fill:#fe7416;fill-opacity:1;stroke-width:0.08299665px"
         d="m 48.018612,353.61349 q 0.478061,0.11952 1.111491,0.20318 0.645382,0.0717 1.231007,0.0717 0.609527,0 1.350521,-0.0717 v -2.22298 l -1.135394,-0.0837 q -1.09954,-0.0837 -1.649309,-0.27489 -0.54977,-0.20318 -0.776849,-0.62148 -0.215127,-0.43025 -0.215127,-1.231 0,-0.86051 0.215127,-1.36248 0.227079,-0.51391 0.717091,-0.74099 0.501964,-0.22708 1.33857,-0.22708 1.207103,0 2.414206,0.22708 l -0.155369,0.94417 q -0.956122,-0.17927 -2.187128,-0.17927 -0.609527,0 -1.039782,0.0598 v 2.24689 l 1.326619,0.0837 q 0.956121,0.0598 1.481988,0.28684 0.525866,0.21512 0.740994,0.68123 0.227079,0.45416 0.227079,1.26686 0,0.83661 -0.262934,1.31467 -0.262933,0.47806 -0.860509,0.69319 -0.597576,0.20317 -1.637358,0.20317 -1.266861,0 -2.414206,-0.28683 z" />
      <path
         inkscape:connector-curvature="0"
         id="path856"
         style="font-style:normal;font-variant:normal;font-weight:normal;font-stretch:normal;font-family:Changa;-inkscape-font-specification:Changa;letter-spacing:1.51129019px;fill:#fe7416;fill-opacity:1;stroke-width:0.08299665px"
         d="m 61.583381,347.23138 v 7.4697 h -1.195152 v -3.22691 h -3.107394 v 3.22691 h -1.195152 v -7.4697 h 1.195152 V 350.53 h 3.107394 v -3.29862 z" />
      <path
         inkscape:connector-curvature="0"
         id="path858"
         style="font-style:normal;font-variant:normal;font-weight:normal;font-stretch:normal;font-family:Changa;-inkscape-font-specification:Changa;letter-spacing:1.51129019px;fill:#fe7416;fill-opacity:1;stroke-width:0.08299665px"
         d="m 68.898628,353.02787 h -2.856413 l -0.490012,1.67321 h -1.195152 l 2.211031,-7.4697 h 1.804679 l 2.21103,7.4697 H 69.38864 Z m -0.274885,-0.94417 -1.09954,-3.75278 H 67.416639 L 66.3171,352.0837 Z" />
      <path
         inkscape:connector-curvature="0"
         id="path860"
         style="font-style:normal;font-variant:normal;font-weight:normal;font-stretch:normal;font-family:Changa;-inkscape-font-specification:Changa;letter-spacing:1.51129019px;fill:#fe7416;fill-opacity:1;stroke-width:0.08299665px"
         d="m 77.482601,354.70108 -1.242957,-2.64128 h -1.697116 v 2.64128 h -1.195152 v -7.4697 h 2.98788 q 0.800751,0 1.242958,0.23903 0.454157,0.23903 0.645381,0.7888 0.203176,0.53782 0.203176,1.49394 0,0.92027 -0.23903,1.44614 -0.227079,0.51391 -0.752946,0.71709 l 1.350522,2.7847 z m -2.940073,-3.58545 h 1.804679 q 0.466109,0 0.645382,-0.10757 0.179273,-0.10756 0.179273,-0.3944 v -1.88834 q 0,-0.28683 -0.179273,-0.3944 -0.179273,-0.10756 -0.645382,-0.10756 h -1.804679 z" />
      <path
         inkscape:connector-curvature="0"
         id="path862"
         style="font-style:normal;font-variant:normal;font-weight:normal;font-stretch:normal;font-family:Changa;-inkscape-font-specification:Changa;letter-spacing:1.51129019px;fill:#fe7416;fill-opacity:1;stroke-width:0.08299665px"
         d="m 84.46862,347.23138 q 1.254909,0 1.864436,0.29879 0.609528,0.28684 0.836606,1.06369 0.227079,0.76489 0.227079,2.37835 0,1.6015 -0.227079,2.37835 -0.227078,0.7649 -0.836606,1.06368 -0.609527,0.28684 -1.864436,0.28684 h -2.67714 v -7.4697 z m -1.481989,6.47772 h 2.187128 q 0.525867,0 0.729043,-0.19122 0.203175,-0.19122 0.203175,-0.68124 v -3.74082 q 0,-0.49001 -0.203175,-0.68124 -0.203176,-0.19122 -0.729043,-0.19122 h -2.187128 z" />
      <path
         inkscape:connector-curvature="0"
         id="path864"
         style="font-style:normal;font-variant:normal;font-weight:normal;font-stretch:normal;font-family:Changa;-inkscape-font-specification:Changa;letter-spacing:1.51129019px;fill:#fe7416;fill-opacity:1;stroke-width:0.08299665px"
         d="m 91.944277,353.7091 h 3.286667 v 0.99198 h -4.481819 v -7.4697 h 4.445965 l -0.143419,0.99198 h -3.107394 v 2.27079 h 2.832509 v 0.94417 h -2.832509 z" />
      <path
         inkscape:connector-curvature="0"
         id="path866"
         style="font-style:normal;font-variant:normal;font-weight:normal;font-stretch:normal;font-family:Changa;-inkscape-font-specification:Changa;letter-spacing:1.51129019px;fill:#fe7416;fill-opacity:1;stroke-width:0.08299665px"
         d="m 101.10005,347.23138 q 1.25491,0 1.86444,0.29879 0.60953,0.28684 0.83661,1.06369 0.22708,0.76489 0.22708,2.37835 0,1.6015 -0.22708,2.37835 -0.22708,0.7649 -0.83661,1.06368 -0.60953,0.28684 -1.86444,0.28684 h -2.677135 v -7.4697 z m -1.481983,6.47772 h 2.187123 q 0.52587,0 0.72905,-0.19122 0.20317,-0.19122 0.20317,-0.68124 v -3.74082 q 0,-0.49001 -0.20317,-0.68124 -0.20318,-0.19122 -0.72905,-0.19122 h -2.187123 z" />
      <path
         inkscape:connector-curvature="0"
         id="path868"
         style="font-style:normal;font-variant:normal;font-weight:normal;font-stretch:normal;font-family:Changa;-inkscape-font-specification:Changa;letter-spacing:1.51129019px;fill:#fe7416;fill-opacity:1;stroke-width:0.08299665px"
         d="m 117.57405,347.23138 v 7.4697 h -1.19515 v -7.4697 z" />
      <path
         inkscape:connector-curvature="0"
         id="path870"
         style="font-style:normal;font-variant:normal;font-weight:normal;font-stretch:normal;font-family:Changa;-inkscape-font-specification:Changa;letter-spacing:1.51129019px;fill:#fe7416;fill-opacity:1;stroke-width:0.08299665px"
         d="m 121.28797,347.23138 h 1.1593 l 2.89226,4.66109 q 0.17928,0.31074 0.23904,0.44221 0.0597,0.11952 0.0717,0.29879 h 0.0717 v -5.40209 h 1.19516 v 7.4697 h -1.1593 l -2.89227,-4.66109 q -0.17927,-0.31074 -0.23903,-0.43026 -0.0598,-0.13146 -0.0717,-0.31074 h -0.0717 v 5.40209 h -1.19515 z" />
      <path
         inkscape:connector-curvature="0"
         id="path872"
         style="font-style:normal;font-variant:normal;font-weight:normal;font-stretch:normal;font-family:Changa;-inkscape-font-specification:Changa;letter-spacing:1.51129019px;fill:#fe7416;fill-opacity:1;stroke-width:0.08299665px"
         d="m 132.90016,354.70108 h -1.19515 v -6.47772 h -1.972 v -0.99198 h 5.13915 v 0.99198 h -1.972 z" />
      <path
         inkscape:connector-curvature="0"
         id="path874"
         style="font-style:normal;font-variant:normal;font-weight:normal;font-stretch:normal;font-family:Changa;-inkscape-font-specification:Changa;letter-spacing:1.51129019px;fill:#fe7416;fill-opacity:1;stroke-width:0.08299665px"
         d="m 138.84471,353.7091 h 3.28667 v 0.99198 h -4.48182 v -7.4697 h 4.44597 l -0.14342,0.99198 h -3.1074 v 2.27079 h 2.83251 v 0.94417 h -2.83251 z" />
      <path
         inkscape:connector-curvature="0"
         id="path876"
         style="font-style:normal;font-variant:normal;font-weight:normal;font-stretch:normal;font-family:Changa;-inkscape-font-specification:Changa;letter-spacing:1.51129019px;fill:#fe7416;fill-opacity:1;stroke-width:0.08299665px"
         d="m 149.45858,354.70108 -1.24296,-2.64128 h -1.69712 v 2.64128 h -1.19515 v -7.4697 h 2.98788 q 0.80075,0 1.24296,0.23903 0.45416,0.23903 0.64538,0.7888 0.20318,0.53782 0.20318,1.49394 0,0.92027 -0.23903,1.44614 -0.22708,0.51391 -0.75295,0.71709 l 1.35052,2.7847 z m -2.94008,-3.58545 h 1.80468 q 0.46611,0 0.64538,-0.10757 0.17928,-0.10756 0.17928,-0.3944 v -1.88834 q 0,-0.28683 -0.17928,-0.3944 -0.17927,-0.10756 -0.64538,-0.10756 h -1.80468 z" />
      <path
         inkscape:connector-curvature="0"
         id="path878"
         style="font-style:normal;font-variant:normal;font-weight:normal;font-stretch:normal;font-family:Changa;-inkscape-font-specification:Changa;letter-spacing:1.51129019px;fill:#fe7416;fill-opacity:1;stroke-width:0.08299665px"
         d="m 153.82722,347.23138 h 1.15929 l 2.89227,4.66109 q 0.17927,0.31074 0.23903,0.44221 0.0598,0.11952 0.0717,0.29879 h 0.0717 v -5.40209 h 1.19515 v 7.4697 h -1.1593 l -2.89226,-4.66109 q -0.17928,-0.31074 -0.23903,-0.43026 -0.0598,-0.13146 -0.0717,-0.31074 h -0.0717 v 5.40209 h -1.19515 z" />
      <path
         inkscape:connector-curvature="0"
         id="path880"
         style="font-style:normal;font-variant:normal;font-weight:normal;font-stretch:normal;font-family:Changa;-inkscape-font-specification:Changa;letter-spacing:1.51129019px;fill:#fe7416;fill-opacity:1;stroke-width:0.08299665px"
         d="m 164.36377,353.7091 h 3.28667 v 0.99198 h -4.48182 v -7.4697 h 4.44596 l -0.14341,0.99198 h -3.1074 v 2.27079 h 2.83251 v 0.94417 h -2.83251 z" />
      <path
         inkscape:connector-curvature="0"
         id="path882"
         style="font-style:normal;font-variant:normal;font-weight:normal;font-stretch:normal;font-family:Changa;-inkscape-font-specification:Changa;letter-spacing:1.51129019px;fill:#fe7416;fill-opacity:1;stroke-width:0.08299665px"
         d="m 173.1132,354.70108 h -1.19515 v -6.47772 h -1.972 v -0.99198 h 5.13915 v 0.99198 h -1.972 z" />
    </g>
  </g>
</svg>
